<svg xmlns="http://www.w3.org/2000/svg" xmlns:xlink="http://www.w3.org/1999/xlink" width="289" height="206" viewBox="0 0 289 206">
  <defs>
    <clipPath id="clip-path">
      <rect id="background" width="289" height="206" transform="translate(977 864)" fill="none"/>
    </clipPath>
  </defs>
  <g id="bizimkinomuz" transform="translate(-977 -864)" clip-path="url(#clip-path)">
    <g id="bizimkinomuz-2" data-name="bizimkinomuz">
      <g id="Group_3322" data-name="Group 3322">
        <path id="Path_4952" data-name="Path 4952" d="M3332.429,878.911s29.711,6.6,51.169,25.046,33.73,46.289,35.524,64.876-.229,42.205-14.784,63.01-55.6,47.114-69.225,46.181,10.356,1.959,10.356,1.959,30.321-8.583,31.347-9.05,37.971-30.414,37.971-30.414l15.953-31.44,4.478-37.131L3430.74,948.9l-19.405-35.266s-18.939-16.233-20.991-17.446-22.577-11.1-22.577-11.1l-23.7-6.179Z" transform="translate(-2141)" fill="#e5e5e5"/>
        <path id="Path_4948" data-name="Path 4948" d="M3385.988,970.128s11.979,4.091,17.285,11.411,4.364,14.21,1.968,18.946-13.177,15.214-20.194,15.717,4.621,2.655,4.621,2.655l16.686-4.808s9.926-8.971,10.011-9.473,2.653-9.114,2.653-9.114l-4.107-10.908-6.417-9.186s-9.926-4.665-10.7-5.239S3385.988,970.128,3385.988,970.128Z" transform="translate(-2146.842)" fill="#e5e5e5"/>
        <path id="Path_4949" data-name="Path 4949" d="M3386.652,970.128s14.474,4.091,20.883,11.411,5.272,14.21,2.378,18.946-15.92,15.214-24.4,15.717,5.583,2.655,5.583,2.655l20.16-4.808s11.992-8.971,12.1-9.473,3.2-9.114,3.2-9.114l-4.962-10.908-7.754-9.186s-11.992-4.665-12.923-5.239S3386.652,970.128,3386.652,970.128Z" transform="translate(-2193.624 -68)" fill="#e5e5e5"/>
        <path id="Path_4950" data-name="Path 4950" d="M3386.792,970.128s15,4.091,21.642,11.411,5.464,14.21,2.464,18.946-16.5,15.214-25.285,15.717,5.785,2.655,5.785,2.655l20.893-4.808s12.428-8.971,12.535-9.473,3.322-9.114,3.322-9.114l-5.144-10.908-8.035-9.186s-12.428-4.665-13.393-5.239S3386.792,970.128,3386.792,970.128Z" transform="translate(-2223.787 40)" fill="#e5e5e5"/>
        <path id="Path_4951" data-name="Path 4951" d="M3386.573,970.128s14.176,4.091,20.454,11.411,5.164,14.21,2.329,18.946-15.594,15.214-23.9,15.717,5.467,2.655,5.467,2.655l19.746-4.808s11.746-8.971,11.847-9.473,3.139-9.114,3.139-9.114l-4.86-10.908-7.594-9.186s-11.746-4.665-12.658-5.239S3386.573,970.128,3386.573,970.128Z" transform="translate(-2261.297 -29)" fill="#e5e5e5"/>
      </g>
      <path id="movie-reel" d="M103.818,109.7A28.045,28.045,0,1,0,75.773,81.654,28.077,28.077,0,0,0,103.818,109.7Zm0-49.644a21.6,21.6,0,1,1-21.6,21.6A21.625,21.625,0,0,1,103.818,60.055Zm55.2,104.843a28.046,28.046,0,1,0-28.046-28.046A28.077,28.077,0,0,0,159.016,164.9Zm0-49.646a21.6,21.6,0,1,1-21.6,21.6A21.625,21.625,0,0,1,159.016,115.252Zm-27.152,76.8a28.045,28.045,0,1,0-28.046,28.045A28.077,28.077,0,0,0,131.864,192.05Zm-49.645,0a21.6,21.6,0,1,1,21.6,21.6A21.625,21.625,0,0,1,82.219,192.05Zm-33.6-83.244a28.046,28.046,0,1,0,28.045,28.046A28.077,28.077,0,0,0,48.62,108.806Zm0,49.646a21.6,21.6,0,1,1,21.6-21.6,21.625,21.625,0,0,1-21.6,21.6Zm43.709-21.6a11.489,11.489,0,1,0,11.489-11.49A11.5,11.5,0,0,0,92.329,136.852Zm16.532,0a5.044,5.044,0,1,1-5.044-5.045A5.049,5.049,0,0,1,108.862,136.852Zm128.783,96.634c-16.8-18.644-26.581-15.864-46.065-10.322a254.324,254.324,0,0,1-48,9.584,103.807,103.807,0,1,0-39.765,7.923h.01q3.694.066,7.213.065c42.3,0,66.2-6.795,82.3-11.373,19.009-5.4,25.408-7.222,39.515,8.436a3.222,3.222,0,0,0,4.788-4.313ZM6.445,136.852a97.373,97.373,0,1,1,97.373,97.373A97.484,97.484,0,0,1,6.445,136.852Z" transform="matrix(-0.259, 0.966, -0.966, -0.259, 1352.254, 914.195)"/>
    </g>
  </g>
</svg>
