<svg xmlns="http://www.w3.org/2000/svg" width="18" height="18" viewBox="0 0 18 18">
  <g id="ins" transform="translate(-0.143 -0.143)">
    <rect id="Rectangle_1784" data-name="Rectangle 1784" width="18" height="18" transform="translate(0.143 0.143)" fill="none"/>
    <g id="instagram_4_" data-name="instagram (4)" transform="translate(1.872 1.871)">
      <path id="Path_4902" data-name="Path 4902" d="M-1180.969-28.88c-1.377-1.377-1.22-3.218-1.22-6.047,0-2.764-.179-4.649,1.22-6.047a4.344,4.344,0,0,1,3.052-1.176c1.339-.059,4.653-.062,5.992,0a4.007,4.007,0,0,1,4.227,4.227c.059,1.34.063,4.653,0,5.992a3.98,3.98,0,0,1-2.464,3.89c-.99.384-1.957.381-4.76.381-.567,0-1.1.008-1.6.008C-1178.424-27.652-1179.856-27.767-1180.969-28.88Zm11.161-.925c.9-.905.844-2.128.844-5.123,0-1.94-.008-2.171-.042-2.937-.152-3.36-2.686-3.022-5.915-3.022l-.027-.018c-1.943,0-2.171.009-2.942.036-3.361.172-3.017,2.583-3.017,5.931,0,2.474-.185,4.106.836,5.122.886.889,2.1.844,5.131.844C-1172-28.97-1170.725-28.888-1169.808-29.8Zm-8.846-5.122a3.731,3.731,0,0,1,3.732-3.732,3.731,3.731,0,0,1,3.732,3.732,3.732,3.732,0,0,1-3.732,3.732A3.731,3.731,0,0,1-1178.654-34.926Zm1.31,0a2.421,2.421,0,0,0,2.422,2.422,2.42,2.42,0,0,0,2.422-2.422,2.422,2.422,0,0,0-2.422-2.423A2.422,2.422,0,0,0-1177.344-34.926Zm5.43-3.879a.872.872,0,0,1,.872-.872.872.872,0,0,1,.872.872.872.872,0,0,1-.872.872A.872.872,0,0,1-1171.915-38.805Z" transform="translate(1182.196 42.195)" fill="#e5e5e5"/>
    </g>
  </g>
</svg>
