<svg xmlns="http://www.w3.org/2000/svg" width="172" height="36" viewBox="0 0 172 36">
  <g id="Logoazculture" transform="translate(-529 -501)">
    <rect id="Rectangle_3" data-name="Rectangle 3" width="172" height="36" transform="translate(529 501)" fill="none"/>
    <g id="Group_5" data-name="Group 5" transform="translate(530.216 502.214)">
      <path id="Path_23" data-name="Path 23" d="M757.7,229.155a16.65,16.65,0,0,0-13.748-7.39h-8.169l4.277,7.437h3.909a9.283,9.283,0,0,1,9.129,9.248v.047a9.249,9.249,0,0,1-8.971,9.25h-6.44l-1.517,1.126c2.928,7.133,10.282,6.172,11.351,5.94a16.656,16.656,0,0,0,10.18-7.065,16.243,16.243,0,0,0,2.836-9.25v-.047A16.869,16.869,0,0,0,757.7,229.155Z" transform="translate(-714.86 -220.888)"/>
      <path id="Path_24" data-name="Path 24" d="M618.84,239.552a3.13,3.13,0,0,1-3.62-1.368c-1.165-1.992-12.517-25.035-12.517-25.035l-9.572,19.145a9.9,9.9,0,0,1,4.9,7.5l4.674-9.38,6.395,12.833a1.97,1.97,0,0,1,.369.28c.127.124.255.247.391.362.024.02.3.231.275.219q.371.268.751.524.218.147.433.3a2.683,2.683,0,0,1,.863.183h.012c-.373-.161-.015-.023.1,0l.062.012c.125.009.249.015.374.013.2,0,.395-.008.591-.025.086-.007.566-.066.415-.041.852-.128,1.7-.29,2.553-.392a1.4,1.4,0,0,1,.171-.009c-.066-.1-.095-.144.023,0h0a1.93,1.93,0,0,1,0-2.674C616.619,241.864,618.662,239.64,618.84,239.552Z" transform="translate(-586.736 -213.149)"/>
      <path id="Path_25" data-name="Path 25" d="M4.369,0A4.369,4.369,0,1,1,0,4.369,4.369,4.369,0,0,1,4.369,0Z" transform="translate(0 32.649) rotate(-88.809)" fill="#db3334"/>
    </g>
    <path id="Path_26" data-name="Path 26" d="M2.464-25.979a7.369,7.369,0,0,0,7.563,7.651,7.476,7.476,0,0,0,5.541-2.287l-.645-1.026a6.469,6.469,0,0,1-4.9,2.111,6.179,6.179,0,0,1-6.273-6.449,6.194,6.194,0,0,1,6.273-6.508c1.407,0,3.928.674,3.928,2.111v.85h1.231V-30.64c0-2.375-3.576-3.049-5.16-3.049A7.452,7.452,0,0,0,2.464-25.979Zm16.622,1.935c0,3.723,1.231,5.716,4.837,5.716a6.475,6.475,0,0,0,6.01-3.987h.059s-.059.528-.059,1.2v.821c0,1.114.5,1.612,1.7,1.612h1.436v-1.114H31.809a.574.574,0,0,1-.645-.645v-12.9H29.932v7.153c0,3.43-2.345,6.655-6.01,6.655-3.283,0-3.606-2.4-3.606-4.954v-7.241c0-1.114-.5-1.612-1.7-1.612H17.18v1.114h1.261a.574.574,0,0,1,.645.645Zm17.3,3.664c0,1.2.5,1.7,1.7,1.7h1.436v-1.114H38.258a.574.574,0,0,1-.645-.645V-37.5c0-1.2-.5-1.7-1.7-1.7H34.476v1.114h1.261a.574.574,0,0,1,.645.645Zm6.772-3.606c0,4.866,3.137,5.423,4.661,5.423a4.121,4.121,0,0,0,.733-.059v-1.143a3.423,3.423,0,0,1-.674.059c-1.173,0-3.489-.5-3.489-4.368v-8.15h3.84v-1.114h-3.84v-4.075H43.154v4.075H41.219v1.114h1.935Zm9.117-.059c0,3.723,1.231,5.716,4.837,5.716a6.475,6.475,0,0,0,6.01-3.987h.059s-.059.528-.059,1.2v.821c0,1.114.5,1.612,1.7,1.612h1.436v-1.114H64.994a.574.574,0,0,1-.645-.645v-12.9H63.117v7.153c0,3.43-2.345,6.655-6.01,6.655-3.283,0-3.606-2.4-3.606-4.954v-7.241c0-1.114-.5-1.612-1.7-1.612H50.365v1.114h1.261a.574.574,0,0,1,.645.645Zm17.3,5.365H70.8v-6.332a10.417,10.417,0,0,1,.44-3.078c.645-2.169,2.081-4.1,4.368-4.1a4.779,4.779,0,0,1,.674.059v-1.231a4.6,4.6,0,0,0-.85-.088c-2.316,0-3.9,1.7-4.632,3.958h-.059s.059-.528.059-1.2v-1.026c0-1.114-.5-1.612-1.7-1.612H67.661v1.114h1.261a.574.574,0,0,1,.645.645Zm8.032-7.3a7.369,7.369,0,0,0,7.563,7.651,7.987,7.987,0,0,0,5.218-2.023l-.674-1.026a6.636,6.636,0,0,1-4.544,1.847c-3.4,0-6.273-2.433-6.273-6.684H90.645s.059-.469.059-.792c0-3.547-1.993-6.684-5.98-6.684C80.971-33.689,77.6-30.933,77.6-25.979Zm1.378-1.378a5.7,5.7,0,0,1,5.717-5.189c2.433,0,4.573,1.612,4.72,5.189Z" transform="translate(609.296 542.116)"/>
    <path id="Path_27" data-name="Path 27" d="M1.848-18.239c0,2.99,2.433,4.661,5.1,4.661a4.867,4.867,0,0,0,4.515-2.638h.059s-.029.264-.029.645c0,.879.528,1.642,1.905,1.642H16.74v-3.137H15.568a.587.587,0,0,1-.645-.645v-5.57c0-3.342-1.466-5.951-6.449-5.951-1.554,0-5.482.293-5.482,3.078v1.583H6.451v-.792c0-.821,1.319-1,1.993-1,1.905,0,2.756.792,2.756,2.932v.117h-.469C8.3-23.31,1.848-22.929,1.848-18.239ZM5.6-18.415c0-2.081,3.078-2.345,5.013-2.345h.645v.352c0,1.818-1.407,3.928-3.4,3.928A1.994,1.994,0,0,1,5.6-18.415Zm12.488,4.485H29.7c1.378,0,1.964-.586,1.964-1.993v-2.638H28.29v.821a.574.574,0,0,1-.645.645H24.362a8.1,8.1,0,0,0-1.407.088v-.059a16.825,16.825,0,0,0,1.261-1.378L31.1-26.857V-28.88H20.141c-1.407,0-1.993.616-1.993,1.993v2.668h3.371v-.85a.587.587,0,0,1,.645-.645h2.7a11.779,11.779,0,0,0,1.378-.059v.059a12.362,12.362,0,0,0-1.261,1.378l-6.889,8.414Z" transform="translate(578.18 537.366)"/>
    <path id="Path_28" data-name="Path 28" d="M4.3-6.024a.226.226,0,0,1-.187-.089.411.411,0,0,1-.07-.259L4.032-7.691Q4.02-7.86,4.02-8.253,4-9.082,4-10.125v-.455q-.105.428-.362,1.2a13.023,13.023,0,0,0-.362,1.319V-8l-.035.169a1.353,1.353,0,0,1-.117.4.386.386,0,0,1-.362.214q-.421,0-.421-.838a4.422,4.422,0,0,0-.123-.994,13.238,13.238,0,0,0-.392-1.306l-.351-1-.023,1.07q0,.481.058,1.837l.023.606.023,1.221a.443.443,0,0,1-.175.339.494.494,0,0,1-.4-.138.636.636,0,0,1-.111-.406l.023-.731q.035-.481.035-.722L.9-10,.876-11.73q0-.383.023-1.15l.316-.143a.313.313,0,0,1,.187.1,1.456,1.456,0,0,1,.21.3,13.369,13.369,0,0,1,.76,2.211,2.914,2.914,0,0,1,.094.383q.14.517.2.785l.175.686.082-.294.222-.731q.187-.642.31-1.123t.24-1.043a10.442,10.442,0,0,0,.164-1.114v-.053A.268.268,0,0,1,4-13.1a.556.556,0,0,1,.281-.067.277.277,0,0,1,.187.071.2.2,0,0,1,.082.152q0,1.07.105,3.2Q4.71-8.7,4.733-7.7q.023.455.023,1.15a.54.54,0,0,1-.14.366A.413.413,0,0,1,4.3-6.024Zm4.711-6.419a1.69,1.69,0,0,1,.994.294,1.787,1.787,0,0,1,.631.8,2.843,2.843,0,0,1,.21,1.114v1.5a3.075,3.075,0,0,1-.538,1.93,1.729,1.729,0,0,1-1.438.691,1.751,1.751,0,0,1-1.356-.464,2.04,2.04,0,0,1-.421-1.409v-.25a1.505,1.505,0,0,1,.4-1.1,1.516,1.516,0,0,1,1.134-.406H8.7l1.461.045q.012-.276.012-.669a1.946,1.946,0,0,0-.333-1.2,1.086,1.086,0,0,0-.918-.441,1.7,1.7,0,0,0-.538.1,5.848,5.848,0,0,0-.748.33.257.257,0,0,1-.105.027.322.322,0,0,1-.2-.071.192.192,0,0,1-.094-.143v-.027a.463.463,0,0,1,.082-.1A3.356,3.356,0,0,1,9.011-12.443ZM8.661-9.3a1.816,1.816,0,0,0-.3.018.683.683,0,0,0-.222.1.446.446,0,0,0-.193.214,2.161,2.161,0,0,0-.123.446,3.924,3.924,0,0,0-.047.686,1.643,1.643,0,0,0,.234.949.8.8,0,0,0,.7.334,2.584,2.584,0,0,0,.316-.036q1.1-.223,1.1-1.952v-.036q0-.241.023-.722ZM13.512-6.2q-.3,0-.3-1.168l.023-1.409q.012-.624.012-1.4a8.4,8.4,0,0,0-.07-.883q-.058-.651-.058-.793a.251.251,0,0,1,.129-.205.482.482,0,0,1,.281-.089,2.29,2.29,0,0,1,.789.138,2.162,2.162,0,0,1,.672.388,2.616,2.616,0,0,1,.818,1.195,2.134,2.134,0,0,1,.105.651,1.814,1.814,0,0,1-.012.214l-.012.241v.49a6.758,6.758,0,0,1-.047.9,2.307,2.307,0,0,1-.269.793,2.233,2.233,0,0,1-.678.669,3.444,3.444,0,0,1-.538.267Zm.514-.455a1,1,0,0,0,.432-.094A1.024,1.024,0,0,0,14.8-7a1.64,1.64,0,0,0,.216-.361,2.215,2.215,0,0,0,.146-.423,4.133,4.133,0,0,0,.129-.82,3.1,3.1,0,0,0,.012-.312q0-2.692-1.368-2.808a4.678,4.678,0,0,0-.082.927q0,.562.094,1.961.082,1.239.082,1.97Zm5.926-5.786a1.69,1.69,0,0,1,.994.294,1.787,1.787,0,0,1,.631.8,2.843,2.843,0,0,1,.21,1.114v1.5A3.075,3.075,0,0,1,21.25-6.8a1.729,1.729,0,0,1-1.438.691,1.751,1.751,0,0,1-1.356-.464,2.04,2.04,0,0,1-.421-1.409v-.25a1.505,1.505,0,0,1,.4-1.1,1.516,1.516,0,0,1,1.134-.406h.07L21.1-9.7q.012-.276.012-.669a1.946,1.946,0,0,0-.333-1.2,1.086,1.086,0,0,0-.918-.441,1.7,1.7,0,0,0-.538.1,5.848,5.848,0,0,0-.748.33.257.257,0,0,1-.105.027.322.322,0,0,1-.2-.071.192.192,0,0,1-.094-.143v-.027a.463.463,0,0,1,.082-.1A3.356,3.356,0,0,1,19.952-12.443ZM19.6-9.3a1.816,1.816,0,0,0-.3.018.683.683,0,0,0-.222.1.446.446,0,0,0-.193.214,2.162,2.162,0,0,0-.123.446,3.924,3.924,0,0,0-.047.686,1.643,1.643,0,0,0,.234.949.8.8,0,0,0,.7.334,2.584,2.584,0,0,0,.316-.036q1.1-.223,1.1-1.952v-.036q0-.241.023-.722Zm7.668,3.067a.325.325,0,0,1-.21-.058.367.367,0,0,1-.105-.2l-.07-.169V-6.7a9.237,9.237,0,0,0-.8-2.006q-.8-1.712-1.257-2.532v4.484l.047.062q.012.018.047.062a.144.144,0,0,1,.035.089.239.239,0,0,1-.105.2.412.412,0,0,1-.257.08q-.374,0-.374-.544l-.012-1.525Q24.2-9.019,24.2-9.866q0-.285.035-.829.035-.562.035-.829a.734.734,0,0,1,.421-.66v.053a.484.484,0,0,1,.094-.018q.269,0,.678.713a10.557,10.557,0,0,1,.59,1.2q.263.633.7,1.8l.117.321q.269.722.409,1.034A38,38,0,0,0,27.5-11.6v-.116a.543.543,0,0,1-.012-.116q0-.267.281-.267a.32.32,0,0,1,.251.1.361.361,0,0,1,.088.25v.669q-.023,1.373-.14,2.978A5.57,5.57,0,0,1,27.69-6.3,3.013,3.013,0,0,1,27.269-6.229Zm3.974-.036q-1.005,0-1.005-.267,0-.214.351-.214h.14a.564.564,0,0,0,.105.009.175.175,0,0,0,.134-.045.239.239,0,0,0,.041-.16q0-.758-.117-2.068-.105-1.364-.105-2.059,0-.25.012-.455l.012-.455a2.857,2.857,0,0,0-.035-.49,1,1,0,0,1-.269.036q-.269,0-.269-.214,0-.107.169-.187a1.5,1.5,0,0,1,.438-.116,6.759,6.759,0,0,1,.83-.062.4.4,0,0,1,.24.071.206.206,0,0,1,.1.169.225.225,0,0,1-.076.169.271.271,0,0,1-.193.071.64.64,0,0,1-.117-.009h-.094a.282.282,0,0,0-.169.04.175.175,0,0,0-.053.147q0,.945.152,2.6.14,1.739.14,2.612V-6.8a2.312,2.312,0,0,1,.234-.009q.491,0,.491.312v.053l-.292.152-.07,0q-.058,0-.234,0Q31.337-6.265,31.244-6.265Zm-.362-7.2a.406.406,0,0,1-.269-.1.287.287,0,0,1-.117-.223.3.3,0,0,1,.129-.236.473.473,0,0,1,.3-.1.456.456,0,0,1,.292.1.291.291,0,0,1,.129.227.279.279,0,0,1-.134.236A.569.569,0,0,1,30.881-13.468Zm4.442,7.337a.381.381,0,0,1-.327-.2,4.482,4.482,0,0,0,.129-1.516,4.31,4.31,0,0,0-.058-.678l-.035-.259A2.757,2.757,0,0,1,35-9.144v-.232q-.117-.223-.427-.829t-.5-1.016a1.953,1.953,0,0,1-.222-.642v-.045l.269-.152q.2.018.421.392a6.781,6.781,0,0,1,.415.945q.228.615.228.651a5.709,5.709,0,0,0,.187-.669,7.574,7.574,0,0,1,.316-1.007q.2-.437.409-.437a.385.385,0,0,1,.2.053.156.156,0,0,1,.088.134,3.827,3.827,0,0,1-.327,1.284,4.185,4.185,0,0,0-.351,1.3v2.684Q35.709-6.131,35.323-6.131Zm4.15,0a.381.381,0,0,1-.327-.2,4.482,4.482,0,0,0,.129-1.516,4.311,4.311,0,0,0-.058-.678l-.035-.259a2.758,2.758,0,0,1-.035-.366v-.232q-.117-.223-.427-.829t-.5-1.016A1.953,1.953,0,0,1,38-11.863v-.045l.269-.152q.2.018.421.392a6.78,6.78,0,0,1,.415.945q.228.615.228.651a5.7,5.7,0,0,0,.187-.669,7.573,7.573,0,0,1,.316-1.007q.2-.437.409-.437a.385.385,0,0,1,.2.053.156.156,0,0,1,.088.134,3.827,3.827,0,0,1-.327,1.284,4.185,4.185,0,0,0-.351,1.3v2.684Q39.859-6.131,39.473-6.131Zm5.12-6.312a1.69,1.69,0,0,1,.994.294,1.787,1.787,0,0,1,.631.8,2.843,2.843,0,0,1,.21,1.114v1.5A3.075,3.075,0,0,1,45.89-6.8a1.729,1.729,0,0,1-1.438.691A1.751,1.751,0,0,1,43.1-6.577a2.04,2.04,0,0,1-.421-1.409v-.25a1.505,1.505,0,0,1,.4-1.1,1.516,1.516,0,0,1,1.134-.406h.07l1.461.045q.012-.276.012-.669a1.946,1.946,0,0,0-.333-1.2,1.086,1.086,0,0,0-.918-.441,1.7,1.7,0,0,0-.538.1,5.848,5.848,0,0,0-.748.33.257.257,0,0,1-.105.027.322.322,0,0,1-.2-.071.192.192,0,0,1-.094-.143v-.027a.463.463,0,0,1,.082-.1A3.356,3.356,0,0,1,44.593-12.443ZM44.242-9.3a1.816,1.816,0,0,0-.3.018.683.683,0,0,0-.222.1.446.446,0,0,0-.193.214,2.162,2.162,0,0,0-.123.446,3.924,3.924,0,0,0-.047.686,1.643,1.643,0,0,0,.234.949.8.8,0,0,0,.7.334,2.584,2.584,0,0,0,.316-.036q1.1-.223,1.1-1.952v-.036q0-.241.023-.722Zm5.131,2.9-.012-.348q-.012-.152-.012-.339l.012-.3q-.035-.1-.175-1.952t-.164-2.38a2.7,2.7,0,0,1-.865-.107q-.129-.071-.129-.16,0-.071.123-.129a.583.583,0,0,1,.251-.058q.327,0,.795.036.444.045.795.045h.187q.362,0,.362.214a.2.2,0,0,1-.117.174.532.532,0,0,1-.269.067,2.464,2.464,0,0,1-.3-.027l-.234-.036-.012.045-.012.045a25.07,25.07,0,0,0,.2,2.532,23.792,23.792,0,0,1,.187,2.532.226.226,0,0,1-.123.187.491.491,0,0,1-.275.08Zm10.041.116A9.49,9.49,0,0,0,59.163-8.4q-.251-1.1-.789-2.684a2.136,2.136,0,0,0-.105-.276,2.4,2.4,0,0,1-.21-.633.176.176,0,0,1,.088-.143.325.325,0,0,1,.193-.062.416.416,0,0,1,.327.223,2.383,2.383,0,0,1,.281.575q.129.361.281.9.14.508.339,1.56l.07.348.14.793q.047.33.082.473.245-.981.631-2.835.316-1.587.444-2.166h.257a.316.316,0,0,1,.187.058.167.167,0,0,1,.082.138,2.673,2.673,0,0,1-.1.691,9.175,9.175,0,0,1-.3.887,6.462,6.462,0,0,0-.216.669,5.85,5.85,0,0,0-.1.7,13.921,13.921,0,0,1-.292,1.935,2.392,2.392,0,0,1-.339.811.593.593,0,0,1-.479.294ZM65.4-12.443a1.69,1.69,0,0,1,.994.294,1.787,1.787,0,0,1,.631.8,2.843,2.843,0,0,1,.21,1.114v1.5A3.075,3.075,0,0,1,66.7-6.8a1.729,1.729,0,0,1-1.438.691A1.751,1.751,0,0,1,63.9-6.577a2.04,2.04,0,0,1-.421-1.409v-.25a1.505,1.505,0,0,1,.4-1.1,1.516,1.516,0,0,1,1.134-.406h.07l1.461.045q.012-.276.012-.669a1.946,1.946,0,0,0-.333-1.2,1.086,1.086,0,0,0-.918-.441,1.7,1.7,0,0,0-.538.1,5.847,5.847,0,0,0-.748.33.257.257,0,0,1-.105.027.322.322,0,0,1-.2-.071.192.192,0,0,1-.094-.143v-.027a.463.463,0,0,1,.082-.1A3.356,3.356,0,0,1,65.4-12.443ZM65.048-9.3a1.816,1.816,0,0,0-.3.018.683.683,0,0,0-.222.1.446.446,0,0,0-.193.214,2.161,2.161,0,0,0-.123.446,3.923,3.923,0,0,0-.047.686,1.643,1.643,0,0,0,.234.949.8.8,0,0,0,.7.334,2.585,2.585,0,0,0,.316-.036q1.1-.223,1.1-1.952v-.036q0-.241.023-.722ZM76.211-6.265q-1.005,0-1.005-.267,0-.214.351-.214h.14a.565.565,0,0,0,.105.009.175.175,0,0,0,.134-.045.239.239,0,0,0,.041-.16q0-.758-.117-2.068-.105-1.364-.105-2.059,0-.25.012-.455l.012-.455a2.857,2.857,0,0,0-.035-.49,1,1,0,0,1-.269.036q-.269,0-.269-.214,0-.107.169-.187a1.5,1.5,0,0,1,.438-.116,6.759,6.759,0,0,1,.83-.062.4.4,0,0,1,.24.071.206.206,0,0,1,.1.169.225.225,0,0,1-.076.169.271.271,0,0,1-.193.071.64.64,0,0,1-.117-.009H76.5a.282.282,0,0,0-.169.04.175.175,0,0,0-.053.147q0,.945.152,2.6.14,1.739.14,2.612V-6.8a2.312,2.312,0,0,1,.234-.009q.491,0,.491.312v.053l-.292.152-.07,0q-.058,0-.234,0Q76.3-6.265,76.211-6.265Zm-.362-7.2a.406.406,0,0,1-.269-.1.287.287,0,0,1-.117-.223.3.3,0,0,1,.129-.236.473.473,0,0,1,.3-.1.456.456,0,0,1,.292.1.291.291,0,0,1,.129.227.279.279,0,0,1-.134.236A.569.569,0,0,1,75.849-13.468Zm6.674,7.239a.325.325,0,0,1-.21-.058.367.367,0,0,1-.105-.2l-.07-.169V-6.7a9.237,9.237,0,0,0-.8-2.006q-.8-1.712-1.257-2.532v4.484l.047.062q.012.018.047.062a.144.144,0,0,1,.035.089.239.239,0,0,1-.105.2.412.412,0,0,1-.257.08q-.374,0-.374-.544l-.012-1.525q-.012-.686-.012-1.533,0-.285.035-.829.035-.562.035-.829a.734.734,0,0,1,.421-.66v.053a.484.484,0,0,1,.094-.018q.269,0,.678.713a10.555,10.555,0,0,1,.59,1.2q.263.633.7,1.8l.117.321q.269.722.409,1.034a38,38,0,0,0,.234-4.529v-.116a.543.543,0,0,1-.012-.116q0-.267.281-.267a.32.32,0,0,1,.251.1.36.36,0,0,1,.088.25v.669q-.023,1.373-.14,2.978a5.57,5.57,0,0,1-.281,1.81A3.013,3.013,0,0,1,82.523-6.229Zm4.816.1a2.744,2.744,0,0,1-.544-.058,2.022,2.022,0,0,1-.438-.129q-.783-.383-.783-2.1v-.731q0-.357.012-.637t.047-.611a2.83,2.83,0,0,1,.105-.566,2.5,2.5,0,0,1,.234-.495,1.139,1.139,0,0,1,.345-.4,1.868,1.868,0,0,1,.532-.241,2.3,2.3,0,0,1,.725-.1.484.484,0,0,1,.269.062.187.187,0,0,1,.094.16.216.216,0,0,1-.076.16.294.294,0,0,1-.181.08h-.549a.512.512,0,0,0-.409.223,1.342,1.342,0,0,0-.245.58,5,5,0,0,0-.152,1.07v.045l-.023.856q-.023.383-.023.865a3.538,3.538,0,0,0,.035.553,1.438,1.438,0,0,0,.2.535.8.8,0,0,0,.479.348,1.317,1.317,0,0,0,.386.053.526.526,0,0,0,.257-.071.567.567,0,0,1,.251.049.157.157,0,0,1,.1.147Q87.982-6.131,87.339-6.131ZM91.8-12.443a1.69,1.69,0,0,1,.994.294,1.787,1.787,0,0,1,.631.8,2.843,2.843,0,0,1,.21,1.114v1.5A3.075,3.075,0,0,1,93.1-6.8a1.729,1.729,0,0,1-1.438.691,1.751,1.751,0,0,1-1.356-.464,2.04,2.04,0,0,1-.421-1.409v-.25a1.505,1.505,0,0,1,.4-1.1,1.516,1.516,0,0,1,1.134-.406h.07L92.95-9.7q.012-.276.012-.669a1.946,1.946,0,0,0-.333-1.2,1.086,1.086,0,0,0-.918-.441,1.7,1.7,0,0,0-.538.1,5.849,5.849,0,0,0-.748.33.257.257,0,0,1-.105.027.322.322,0,0,1-.2-.071.192.192,0,0,1-.094-.143v-.027a.463.463,0,0,1,.082-.1A3.356,3.356,0,0,1,91.8-12.443ZM91.454-9.3a1.816,1.816,0,0,0-.3.018.683.683,0,0,0-.222.1.446.446,0,0,0-.193.214,2.162,2.162,0,0,0-.123.446,3.925,3.925,0,0,0-.047.686,1.643,1.643,0,0,0,.234.949.8.8,0,0,0,.7.334,2.584,2.584,0,0,0,.316-.036q1.1-.223,1.1-1.952v-.036q0-.241.023-.722Zm4.687,3.165a.894.894,0,0,1-.357-.116.331.331,0,0,1-.169-.232l.129-.152a1.1,1.1,0,0,1,.222.036,1.926,1.926,0,0,0,.269.027.575.575,0,0,0,.38-.143.845.845,0,0,0,.251-.374,2.323,2.323,0,0,0,.152-.767,2.088,2.088,0,0,0-.491-1.239L96.4-9.26q-.222-.294-.374-.526a2.73,2.73,0,0,1-.257-.5,1.847,1.847,0,0,1-.14-.7,1.713,1.713,0,0,1,.234-.82.914.914,0,0,1,.333-.334.927.927,0,0,1,.485-.129.782.782,0,0,1,.392.1.292.292,0,0,1,.181.245.137.137,0,0,1-.082.125.41.41,0,0,1-.2.045.583.583,0,0,1-.245-.053q-.257.009-.409.348a1.425,1.425,0,0,0-.129.517,1.4,1.4,0,0,0,.105.522,2.008,2.008,0,0,0,.269.477l.257.357.409.588a2.217,2.217,0,0,1,.263.58,2.306,2.306,0,0,1,.1.669,1.833,1.833,0,0,1-.327,1.034,1.173,1.173,0,0,1-.462.4,1.436,1.436,0,0,1-.66.152Zm5.447-6.312a1.69,1.69,0,0,1,.994.294,1.787,1.787,0,0,1,.631.8,2.843,2.843,0,0,1,.21,1.114v1.5a3.075,3.075,0,0,1-.538,1.93,1.729,1.729,0,0,1-1.438.691,1.751,1.751,0,0,1-1.356-.464,2.04,2.04,0,0,1-.421-1.409v-.25a1.505,1.505,0,0,1,.4-1.1,1.516,1.516,0,0,1,1.134-.406h.07l1.461.045q.012-.276.012-.669a1.946,1.946,0,0,0-.333-1.2,1.086,1.086,0,0,0-.918-.441,1.7,1.7,0,0,0-.538.1,5.848,5.848,0,0,0-.748.33.257.257,0,0,1-.105.027.322.322,0,0,1-.2-.071.192.192,0,0,1-.093-.143v-.027a.462.462,0,0,1,.082-.1A3.356,3.356,0,0,1,101.588-12.443ZM101.238-9.3a1.816,1.816,0,0,0-.3.018.682.682,0,0,0-.222.1.446.446,0,0,0-.193.214,2.161,2.161,0,0,0-.123.446,3.924,3.924,0,0,0-.047.686,1.643,1.643,0,0,0,.234.949.8.8,0,0,0,.7.334,2.584,2.584,0,0,0,.316-.036q1.1-.223,1.1-1.952v-.036q0-.241.023-.722Zm7.668,3.067a.325.325,0,0,1-.21-.058.367.367,0,0,1-.105-.2l-.07-.169V-6.7a9.237,9.237,0,0,0-.8-2.006q-.8-1.712-1.257-2.532v4.484l.047.062q.012.018.047.062a.144.144,0,0,1,.035.089.239.239,0,0,1-.105.2.412.412,0,0,1-.257.08q-.374,0-.374-.544l-.012-1.525q-.012-.686-.012-1.533,0-.285.035-.829.035-.562.035-.829a.734.734,0,0,1,.421-.66v.053a.484.484,0,0,1,.094-.018q.269,0,.678.713a10.559,10.559,0,0,1,.59,1.2q.263.633.7,1.8l.117.321q.269.722.409,1.034a38,38,0,0,0,.234-4.529v-.116a.542.542,0,0,1-.012-.116q0-.267.281-.267a.32.32,0,0,1,.251.1.361.361,0,0,1,.088.25v.669q-.023,1.373-.14,2.978a5.571,5.571,0,0,1-.281,1.81A3.013,3.013,0,0,1,108.906-6.229Zm5.178-6.214a1.69,1.69,0,0,1,.994.294,1.787,1.787,0,0,1,.631.8,2.843,2.843,0,0,1,.21,1.114v1.5a3.075,3.075,0,0,1-.538,1.93,1.729,1.729,0,0,1-1.438.691,1.751,1.751,0,0,1-1.356-.464,2.04,2.04,0,0,1-.421-1.409v-.25a1.505,1.505,0,0,1,.4-1.1,1.516,1.516,0,0,1,1.134-.406h.07l1.461.045q.012-.276.012-.669a1.946,1.946,0,0,0-.333-1.2,1.086,1.086,0,0,0-.918-.441,1.7,1.7,0,0,0-.538.1,5.848,5.848,0,0,0-.748.33.257.257,0,0,1-.105.027.322.322,0,0,1-.2-.071.192.192,0,0,1-.094-.143v-.027a.463.463,0,0,1,.082-.1A3.356,3.356,0,0,1,114.084-12.443ZM113.733-9.3a1.816,1.816,0,0,0-.3.018.683.683,0,0,0-.222.1.446.446,0,0,0-.193.214,2.16,2.16,0,0,0-.123.446,3.925,3.925,0,0,0-.047.686,1.643,1.643,0,0,0,.234.949.8.8,0,0,0,.7.334,2.584,2.584,0,0,0,.316-.036q1.1-.223,1.1-1.952v-.036q0-.241.023-.722Zm5.131,2.9-.012-.348q-.012-.152-.012-.339l.012-.3q-.035-.1-.175-1.952t-.164-2.38a2.7,2.7,0,0,1-.865-.107q-.129-.071-.129-.16,0-.071.123-.129a.583.583,0,0,1,.251-.058q.327,0,.795.036.444.045.795.045h.187q.362,0,.362.214a.2.2,0,0,1-.117.174.532.532,0,0,1-.269.067,2.464,2.464,0,0,1-.3-.027l-.234-.036-.012.045-.012.045a25.07,25.07,0,0,0,.2,2.532,23.79,23.79,0,0,1,.187,2.532.226.226,0,0,1-.123.187.491.491,0,0,1-.275.08Z" transform="translate(579.907 541.636)"/>
  </g>
</svg>
