<svg xmlns="http://www.w3.org/2000/svg" width="36" height="36" viewBox="0 0 36 36">
  <g id="msg" transform="translate(0.333)">
    <circle id="Ellipse_11" data-name="Ellipse 11" cx="18" cy="18" r="18" transform="translate(-0.333)"/>
    <g id="msg-2" data-name="msg" transform="translate(7.849 8.182)">
      <rect id="Rectangle_1802" data-name="Rectangle 1802" width="20" height="20" transform="translate(-0.182 -0.182)" fill="none" opacity="0"/>
      <path id="Subtraction_1" data-name="Subtraction 1" d="M3.613,16.941a.675.675,0,0,1-.678-.658l-.047-1.506a.683.683,0,0,0-.229-.482A8.031,8.031,0,0,1,0,8.216,8.163,8.163,0,0,1,8.471,0a8.163,8.163,0,0,1,8.47,8.216,8.163,8.163,0,0,1-8.47,8.217,9.224,9.224,0,0,1-2.452-.326.682.682,0,0,0-.179-.024.67.67,0,0,0-.273.058l-1.681.741A.676.676,0,0,1,3.613,16.941ZM6.951,6.08a1.266,1.266,0,0,0-1.077.593L3.385,10.62a.387.387,0,0,0-.017.4.417.417,0,0,0,.358.217.4.4,0,0,0,.242-.085l2.674-2.03a.51.51,0,0,1,.612,0l1.979,1.485a1.272,1.272,0,0,0,1.838-.34l2.487-3.945a.386.386,0,0,0,.017-.4.417.417,0,0,0-.358-.217.4.4,0,0,0-.242.085L10.3,7.816a.508.508,0,0,1-.612,0L7.711,6.333A1.259,1.259,0,0,0,6.951,6.08Z" transform="translate(1.62 1.348)" fill="#fff"/>
    </g>
  </g>
</svg>
