<svg xmlns="http://www.w3.org/2000/svg" xmlns:xlink="http://www.w3.org/1999/xlink" width="289" height="206" viewBox="0 0 289 206">
  <defs>
    <clipPath id="clip-path">
      <rect id="background" width="289" height="206" transform="translate(1300 865)" fill="none"/>
    </clipPath>
  </defs>
  <g id="mugam" transform="translate(-1300 -865)" clip-path="url(#clip-path)">
    <g id="mugam-2" data-name="mugam" transform="translate(0 13.195)">
      <g id="Group_3324" data-name="Group 3324" transform="translate(1391.32 865.004)">
        <path id="Path_4959" data-name="Path 4959" d="M3675.633,1047.277s5.783,9.036-.864,20.115-14.247,12.9-17.94,13.342-6.5.739-10.672-.812-12.434-8.017-12.434-8.017l8.89,11.632s11.559,4.21,12.777,4.321,14.771-1.108,15.1-1.219,13.183-9.084,13.885-9.823,6.573-22.711,6.573-22.711l-4.616-13.146-1.957-2.216Z" transform="translate(-3534.766 -869.327)" fill="#e5e5e5"/>
        <path id="Path_4958" data-name="Path 4958" d="M3718.453,986.117l-66.1,78.682,2.788,2.278,65.909-76.783v-3.168Z" transform="translate(-3535.152 -868.237)" fill="#e5e5e5"/>
        <path id="Path_4957" data-name="Path 4957" d="M3739.479,961.655l-18.723,22.592,4.743,4.181h1.685l18.41-21.531a11.782,11.782,0,0,0-1.5-2.5C3743.6,964.026,3739.479,961.655,3739.479,961.655Z" transform="translate(-3536.569 -867.73)" fill="#e5e5e5"/>
        <path id="Path_4956" data-name="Path 4956" d="M3601.94,1010.787s5.392,9.454-1.145,16.507-9.119,6.318-12.737,7.758a6.571,6.571,0,0,0-4.163,4.56s.91,12.091-3.78,19.919a35.858,35.858,0,0,1-22.335,16.277c-9.515,2.208-22.647-5.377-22.647-5.377l6.145,7.681,14.322,2.928s10.753-.624,12.141-.912,12.983-5.9,13.528-6.1,11.2-15.7,11.2-15.7l.545-12.914v-3.648s12.587-5.329,13.627-6.721,4.113-10.513,4.113-10.513,1.536-9.553,1.487-10.321-2.131-8.689-2.131-8.689h-3.469l-5.44,4.779Z" transform="translate(-3535.134 -868.639)" fill="#e5e5e5"/>
        <path id="Path_4955" data-name="Path 4955" d="M3683.623,899.619l-127.9,152.594,2.159,1.823L3686.08,903.205Z" transform="translate(-3533.151 -866.445)" fill="#e5e5e5"/>
        <path id="Path_4954" data-name="Path 4954" d="M3712.939,865.744l-26.611,31.965,6.49,5.436,9.735-7.707L3719.1,873.37l.811-1.541Z" transform="translate(-3535.856 -865.744)" fill="#e5e5e5"/>
      </g>
      <path id="Path_4960" data-name="Path 4960" d="M-2038.184,234.978h0l-2.442-2.05,11.042-15.241a33.831,33.831,0,0,1-7.317-9.609,34.077,34.077,0,0,1-3.623-12.625,34.121,34.121,0,0,1,1.374-13.062,34.075,34.075,0,0,1,6.511-11.948,34.232,34.232,0,0,1,9.5-7.878,34.34,34.34,0,0,1,11.248-3.917,35.133,35.133,0,0,1,5.5-.445,34.693,34.693,0,0,1,5.955.521,34.294,34.294,0,0,1,10.185,3.515l36.245-43.2a5.989,5.989,0,0,1,.033-4.48l-2.021-1.7a6.024,6.024,0,0,1-.742-8.474l1.346-1.6a6,6,0,0,1,4.612-2.146,6.016,6.016,0,0,1,3.861,1.4l1.8,1.514.337-.4-1.8-1.514a5.97,5.97,0,0,1-2.123-4.083,5.97,5.97,0,0,1,1.381-4.389l1.346-1.6a6,6,0,0,1,4.611-2.146,6.043,6.043,0,0,1,3.862,1.4l2.021,1.695a6,6,0,0,1,3.213-.933,6,6,0,0,1,2.284.452l5.058-6.027a6.007,6.007,0,0,1,4.613-2.146,6.05,6.05,0,0,1,3.862,1.4l1.6,1.344a6.007,6.007,0,0,1,2.123,4.084,5.977,5.977,0,0,1-1.382,4.39l-5.058,6.028a6.007,6.007,0,0,1,.482,5.5l2.021,1.7a6.022,6.022,0,0,1,.741,8.473l-1.346,1.6a6,6,0,0,1-4.612,2.145,6.014,6.014,0,0,1-3.86-1.4l-1.8-1.515-.337.4,1.8,1.515a6.024,6.024,0,0,1,.741,8.474l-1.345,1.6a6.008,6.008,0,0,1-4.613,2.146,5.983,5.983,0,0,1-3.861-1.4l-2.021-1.7a5.968,5.968,0,0,1-3.215.931,5.623,5.623,0,0,1-1.193-.12l-36.572,43.584a34.381,34.381,0,0,1,4.343,8.806,34.512,34.512,0,0,1,1.676,11.2,34.227,34.227,0,0,1-2.083,11.211,34.226,34.226,0,0,1-5.93,10.222,34.06,34.06,0,0,1-10.635,8.485,34.038,34.038,0,0,1-12.625,3.622c-.946.088-1.965.133-3.028.133a33.942,33.942,0,0,1-10.033-1.508,33.85,33.85,0,0,1-8.932-4.245l-12.784,14h0Zm31.834-71.023c-.791,0-1.641.037-2.527.111a28.514,28.514,0,0,0-10.508,3.014,28.339,28.339,0,0,0-8.847,7.061,28.432,28.432,0,0,0-5.417,9.939,28.392,28.392,0,0,0-1.145,10.872,28.363,28.363,0,0,0,3.014,10.508,28.134,28.134,0,0,0,7.061,8.847,28.159,28.159,0,0,0,9.939,5.417,28.3,28.3,0,0,0,8.35,1.255c.858,0,1.707-.037,2.523-.111a28.294,28.294,0,0,0,10.508-3.014,28.3,28.3,0,0,0,8.847-7.061,28.327,28.327,0,0,0,5.417-9.941,28.4,28.4,0,0,0,1.144-10.87,28.376,28.376,0,0,0-3.015-10.508c-.31-.6-.651-1.212-1.012-1.815l-24.592,29.306-.6-.5-3.806-3.2,64.56-76.939-3.607-3.027-64.56,76.938-4.406-3.7,24.99-29.782a29.4,29.4,0,0,0-3.966-1.552,30.187,30.187,0,0,0-3.422-.825A28.811,28.811,0,0,0-2006.35,163.955Zm75.218-42.094-2.6,3.1,2.018,1.693a2.034,2.034,0,0,0,1.273.5,1.194,1.194,0,0,0,.938-.4l.867-1.033a1.207,1.207,0,0,0,.22-1.06,2.05,2.05,0,0,0-.7-1.1l-2.018-1.693Zm-1.13-24.512a.263.263,0,0,0-.2.093l-16.14,19.236a.282.282,0,0,0-.06.193.252.252,0,0,0,.094.177l8.014,6.725a.234.234,0,0,0,.167.06.262.262,0,0,0,.2-.093l16.14-19.234a.258.258,0,0,0,.06-.192.293.293,0,0,0-.093-.178l-8.014-6.725a.41.41,0,0,0-.124-.059A.352.352,0,0,0-1932.262,97.349Zm10.55,13.285-2.7,3.222,2.03,1.7a1.992,1.992,0,0,0,1.266.49,1.257,1.257,0,0,0,.989-.427l.9-1.075a1.266,1.266,0,0,0,.24-1.092,2.025,2.025,0,0,0-.693-1.118l-2.03-1.7Zm-29.793-5.368a1.3,1.3,0,0,0-1.02.445l-.914,1.091a1.277,1.277,0,0,0-.281.946,1.877,1.877,0,0,0,.686,1.252l1.981,1.661,2.743-3.271-1.98-1.661A1.911,1.911,0,0,0-1951.505,105.266Zm9.391-11.3a1.262,1.262,0,0,0-.991.429l-.9,1.074a1.267,1.267,0,0,0-.243,1.089,1.989,1.989,0,0,0,.686,1.112l2.016,1.692,2.7-3.221-2.016-1.691A1.971,1.971,0,0,0-1942.114,93.963Zm21.8-4.343a.264.264,0,0,0-.2.094l-4.876,5.81,2.006,1.682,4.875-5.81a.261.261,0,0,0,.06-.192.26.26,0,0,0-.092-.179l-1.6-1.345a.379.379,0,0,0-.122-.057h-.047Zm-185.648,132.008a34.959,34.959,0,0,1-6.163-.537,33.69,33.69,0,0,1-3.828-.9,34.434,34.434,0,0,1-12.542-6.726,34.406,34.406,0,0,1-8.8-11.182,35.612,35.612,0,0,1-3.614-13.379,36.937,36.937,0,0,1,1.687-13.923,37.813,37.813,0,0,1,7.093-12.821,37.68,37.68,0,0,1,13.442-10.211,37.054,37.054,0,0,1,11.751-3.113,27.381,27.381,0,0,1,1.176-5.145,26.691,26.691,0,0,1,4.9-8.744,26.8,26.8,0,0,1,8.768-6.856,27.832,27.832,0,0,1,10.525-2.76c.674-.038,1.291-.058,1.834-.058a29.626,29.626,0,0,1,9.144,1.464c.921.305,1.841.655,2.734,1.041l79.124-94.3a6.033,6.033,0,0,1-.911-2.758,5.907,5.907,0,0,1,.44-2.761,3.932,3.932,0,0,1-.429-.327l-1.6-1.346a5.95,5.95,0,0,1-2.124-4.083,5.98,5.98,0,0,1,1.382-4.391l.673-.8a6,6,0,0,1,4.612-2.146,6.058,6.058,0,0,1,3.862,1.4l1.6,1.345c.071.061.136.118.2.174l.345-.411-.046-.035c-.051-.04-.105-.085-.159-.13l-1.6-1.345a6.022,6.022,0,0,1-.742-8.473l.673-.8a6,6,0,0,1,4.612-2.146,6.05,6.05,0,0,1,3.862,1.4l1.6,1.345c.064.055.13.113.2.174l.344-.411a1.759,1.759,0,0,1-.2-.165l-1.6-1.345a5.973,5.973,0,0,1-2.123-4.083,5.973,5.973,0,0,1,1.381-4.39l.672-.8a6,6,0,0,1,4.613-2.147,6.05,6.05,0,0,1,3.862,1.4l1.6,1.345c.141.126.271.245.4.364a6.024,6.024,0,0,1,3.233-.945,6.06,6.06,0,0,1,3.869,1.41l11.22,9.415a5.986,5.986,0,0,1,1.691,6.914c.152.111.3.221.428.327l1.6,1.345a6.022,6.022,0,0,1,.741,8.474l-.672.8a6,6,0,0,1-4.612,2.146,5.984,5.984,0,0,1-3.862-1.4l-1.6-1.345a1.729,1.729,0,0,1-.2-.174l-.345.412c.091.071.152.121.205.164l1.6,1.345a6.007,6.007,0,0,1,2.123,4.083,5.977,5.977,0,0,1-1.382,4.39l-.672.8a6,6,0,0,1-4.612,2.146,5.985,5.985,0,0,1-3.862-1.4l-1.6-1.345a1.951,1.951,0,0,1-.2-.173l-.346.41.064.052.083.066.059.047,1.6,1.345a6.008,6.008,0,0,1,2.123,4.083,5.96,5.96,0,0,1-1.382,4.39l-.672.8a6.006,6.006,0,0,1-4.613,2.146,5.983,5.983,0,0,1-3.861-1.4l-1.6-1.345a3.808,3.808,0,0,1-.4-.364,5.92,5.92,0,0,1-2.643.913,5.907,5.907,0,0,1-.6.03,5.9,5.9,0,0,1-2.273-.447l-79.335,94.548c.328.543.634,1.077.91,1.588a29.429,29.429,0,0,1,3.292,10.567,27.823,27.823,0,0,1-.891,10.845,26.666,26.666,0,0,1-5.229,9.824,26.9,26.9,0,0,1-12.624,8.387,37.657,37.657,0,0,1-1.067,12.28,37.638,37.638,0,0,1-7.681,14.849,37.767,37.767,0,0,1-11.393,9.212,36.826,36.826,0,0,1-13.42,4.079A35.649,35.649,0,0,1-2105.961,221.629Zm2.322-67c-1.023,0-2.1.056-3.2.167a31.044,31.044,0,0,0-11.238,3.415,31.814,31.814,0,0,0-9.548,7.722,31.717,31.717,0,0,0-5.947,10.743,30.918,30.918,0,0,0-1.41,11.66,29.594,29.594,0,0,0,3.017,11.187,28.674,28.674,0,0,0,7.347,9.329,28.83,28.83,0,0,0,10.464,5.615,29.589,29.589,0,0,0,8.347,1.2,29.881,29.881,0,0,0,3.191-.167,30.785,30.785,0,0,0,11.238-3.415,31.446,31.446,0,0,0,9.55-7.722,31.659,31.659,0,0,0,5.945-10.744,30.9,30.9,0,0,0,1.412-11.66l0-.027v-.008l0-.034,0-.062v-.03c-.06-.842-.135-1.889-.277-2.867l-.088-.53-.138-.738.018,0-.2-1.2.807-.1a21.786,21.786,0,0,0,6.933-2.061,21.013,21.013,0,0,0,6.969-5.451,21.17,21.17,0,0,0,4.158-7.807,22.169,22.169,0,0,0,.708-8.649,23.561,23.561,0,0,0-2.362-7.931l-43.363,51.677-.6-.5-3.8-3.193L-1979.3,41.771l-5.213-4.374-126.428,150.672-4.406-3.7,43.634-52-.019-.006c-.146-.05-.312-.107-.491-.166a25.5,25.5,0,0,0-3.259-.816,23.843,23.843,0,0,0-4.053-.355c-.382,0-.877.015-1.47.046a22.35,22.35,0,0,0-8.394,2.2,21.214,21.214,0,0,0-6.968,5.45,21.2,21.2,0,0,0-4.159,7.809,21.966,21.966,0,0,0-.817,7.352l.053.95-1.519-.21,0,.019-.686-.011ZM-1963.8,38.007l-2.6,3.1,2.005,1.683a2.02,2.02,0,0,0,1.264.491,1.2,1.2,0,0,0,.941-.4l.869-1.035a1.212,1.212,0,0,0,.222-1.06,2.034,2.034,0,0,0-.691-1.1l-2.005-1.683Zm3.694-36.051a.265.265,0,0,0-.2.094L-1983.848,30.1a.265.265,0,0,0-.062.194.229.229,0,0,0,.093.177l11.22,9.414a.239.239,0,0,0,.169.062.262.262,0,0,0,.2-.095L-1948.69,11.8a.263.263,0,0,0,.06-.193.3.3,0,0,0-.093-.177l-11.219-9.415a.639.639,0,0,0-.122-.058A.35.35,0,0,0-1960.11,1.956Zm5.306,26.051-2.6,3.1,2.005,1.682a2,2,0,0,0,1.263.492,1.2,1.2,0,0,0,.942-.4l.869-1.034a1.212,1.212,0,0,0,.222-1.06,2.049,2.049,0,0,0-.691-1.1l-2.005-1.682Zm-32.137-8.825a1.279,1.279,0,0,0-.985.424l-.914,1.052a1.266,1.266,0,0,0-.294.928,1.8,1.8,0,0,0,.637,1.217l1.885,1.64,2.743-3.156-1.885-1.64A1.852,1.852,0,0,0-1986.942,19.182Zm40.98-1.682-2.62,3.122,1.907,1.6a1.818,1.818,0,0,0,1.174.45,1.24,1.24,0,0,0,.971-.424l.873-1.04a1.535,1.535,0,0,0-.4-2.108l-1.907-1.6Zm-32.154-8.7a1.258,1.258,0,0,0-.968.417l-.9,1.03a1.257,1.257,0,0,0-.275,1.04,1.733,1.733,0,0,0,.6,1.053l1.835,1.595,2.686-3.091-1.834-1.594A1.8,1.8,0,0,0-1978.116,8.795Zm8.6-10.4a1.243,1.243,0,0,0-.951.406l-.891,1.025a1.245,1.245,0,0,0-.264,1.045A1.812,1.812,0,0,0-1971,1.94l1.88,1.634L-1966.444.5l-1.88-1.634A1.864,1.864,0,0,0-1969.517-1.606Zm-42.029,214.479a2.4,2.4,0,0,1-.5-.045,2.82,2.82,0,0,1-1.344-.627l-9.617-8.07a2.826,2.826,0,0,1-1.015-1.952,2.874,2.874,0,0,1,.661-2.1,2.869,2.869,0,0,1,2.2-1.026,2.88,2.88,0,0,1,1.847.671l9.617,8.069a2.884,2.884,0,0,1,1.014,1.953,2.851,2.851,0,0,1-.661,2.1A2.869,2.869,0,0,1-2011.546,212.873Zm-98.072-7.867a1.585,1.585,0,0,1-.319-.028,1.761,1.761,0,0,1-.856-.4l-11.219-9.414a1.8,1.8,0,0,1-.647-1.241,1.819,1.819,0,0,1,.421-1.337l1.344-1.6a1.824,1.824,0,0,1,1.4-.653,1.846,1.846,0,0,1,1.175.428l11.22,9.414a1.835,1.835,0,0,1,.225,2.578l-1.344,1.6A1.828,1.828,0,0,1-2109.618,205.007Z" transform="translate(3521.365 859.774)"/>
    </g>
  </g>
</svg>
