<svg xmlns="http://www.w3.org/2000/svg" xmlns:xlink="http://www.w3.org/1999/xlink" width="289" height="206" viewBox="0 0 289 206">
  <defs>
    <clipPath id="clip-path">
      <rect id="background" width="289" height="206" transform="translate(654 864)" fill="none"/>
    </clipPath>
  </defs>
  <g id="musiqimiz" transform="translate(-654 -864)" clip-path="url(#clip-path)">
    <g id="Group_3318" data-name="Group 3318">
      <path id="Path_4945" data-name="Path 4945" d="M810.606,931.352l-3.4,1.7s-5.094,2.547-6.913,13.827-14.676,82.232-14.676,82.232-6.185,32.99-32.5,38.448a106.53,106.53,0,0,1-47.665-.97l10.309,13.948,23.529,4.851,20.5-1.941,20.982-10.188,13.584-20.74,8.611-68.405,7.641-47.18Z" fill="#e5e5e5"/>
      <path id="Path_4944" data-name="Path 4944" d="M940.37,888.635s-17.186,133.705-18.605,137.647-1.577,27.119-26.173,36.264S850.5,1065.7,850.5,1065.7l9.933,8.672,22.389,2.207s23.651-5.676,24.754-5.991,23.02-18.132,23.02-18.132,5.518-32.323,5.991-35.791S951.88,897.78,951.88,897.78l1.892-9.145Z" fill="#e5e5e5"/>
      <path id="Path_4941" data-name="Path 4941" d="M37.725,232.185a53.611,53.611,0,0,1-14.186-1.832c-11.292-3.105-19.189-9.782-22.24-18.8-6.122-18.11,9.991-39.98,35.934-48.753a65.177,65.177,0,0,1,29.843-3.074V31.3A3.422,3.422,0,0,1,69.9,27.93L228.147.052a3.418,3.418,0,0,1,4.009,3.367V159.975a2.589,2.589,0,0,1-.016.35c-.229,16.4-15.475,32.93-37.229,40.287-25.937,8.788-52.016,1.172-58.141-16.938-3.05-9.017-.824-19.117,6.263-28.437A62.267,62.267,0,0,1,172.7,134.923a65.177,65.177,0,0,1,29.841-3.078V53.322L96.7,71.97V187.853a2.377,2.377,0,0,1-.02.373c-.24,16.395-15.483,32.913-37.227,40.267a68.2,68.2,0,0,1-21.724,3.691Zm21.123-66.206a61.088,61.088,0,0,0-19.432,3.3c-22.361,7.564-36.559,25.546-31.639,40.088,2.3,6.8,8.54,11.913,17.576,14.4a55.411,55.411,0,0,0,31.9-1.746c18.869-6.38,32.573-20.75,32.583-34.165a3.317,3.317,0,0,1,.018-.344V69.1a3.417,3.417,0,0,1,2.823-3.365L205.36,45.885a3.418,3.418,0,0,1,4.009,3.365v86.71a3.418,3.418,0,0,1-4.189,3.32,56.422,56.422,0,0,0-30.3,2.119,55.393,55.393,0,0,0-26.409,17.967c-5.673,7.458-7.529,15.311-5.228,22.111,4.917,14.543,27.118,20.223,49.476,12.653,18.869-6.384,32.575-20.752,32.583-34.165a2.186,2.186,0,0,1,.016-.322V7.49L73.9,34.165V163.84a3.418,3.418,0,0,1-4.189,3.32,48.139,48.139,0,0,0-10.864-1.182Z" transform="translate(727.348 852.875) rotate(8)"/>
      <path id="Path_4942" data-name="Path 4942" d="M11.868,7.039a2.153,2.153,0,0,1-.279-.012,57.112,57.112,0,0,0-7.968-.1A3.418,3.418,0,0,1,3.215.1a64.238,64.238,0,0,1,8.927.111,3.418,3.418,0,0,1-.271,6.824Z" transform="translate(754.608 1033.388) rotate(8)"/>
      <path id="Path_4943" data-name="Path 4943" d="M3.411,23.376A3.416,3.416,0,0,1,.4,18.353,42.839,42.839,0,0,1,23.485.191,3.419,3.419,0,1,1,25.732,6.65,36.692,36.692,0,0,0,6.423,21.587a3.427,3.427,0,0,1-3.011,1.789Z" transform="translate(720.264 1031.243) rotate(8)"/>
    </g>
  </g>
</svg>
