<svg xmlns="http://www.w3.org/2000/svg" width="16" height="16" viewBox="0 0 16 16">
  <g id="play" transform="translate(-641.646 -876.646)">
    <rect id="Rectangle_1790" data-name="Rectangle 1790" width="16" height="16" transform="translate(641.646 876.646)" fill="none"/>
    <g id="Layer_2" data-name="Layer 2" transform="translate(642.041 877.041)">
      <path id="Path_4961" data-name="Path 4961" d="M15.515,15.285l-2.19-2.211a.1.1,0,0,0-.086-.035.122.122,0,0,0-.086.041l-1.46,1.546a1.014,1.014,0,0,1-.735.319h0a1.014,1.014,0,0,1-.735-.319L7.088,11.285a.122.122,0,0,0-.162,0l-4.877,3.8-.629-.816,4.857-3.8A1.131,1.131,0,0,1,7.8,10.59l3.128,3.341,1.45-1.546a1.126,1.126,0,0,1,.811-.36,1.105,1.105,0,0,1,.821.335L16.2,14.57Z" transform="translate(-1.207 -5.551)" fill="#fff"/>
      <path id="Path_4962" data-name="Path 4962" d="M14.222,16.21H2.987A1.987,1.987,0,0,1,1,14.222V2.987A1.987,1.987,0,0,1,2.987,1H14.222A1.987,1.987,0,0,1,16.21,2.987V14.222A1.987,1.987,0,0,1,14.222,16.21ZM2.987,2.014a.973.973,0,0,0-.973.973V14.222a.973.973,0,0,0,.973.973H14.222a.973.973,0,0,0,.973-.973V2.987a.973.973,0,0,0-.973-.973Z" transform="translate(-1 -1)" fill="#fff"/>
      <circle id="Ellipse_24" data-name="Ellipse 24" cx="1.014" cy="1.014" r="1.014" transform="translate(8.786 3.463)" fill="#fff"/>
      <path id="Path_4963" data-name="Path 4963" d="M2,15.615l4.832-3.889.892-.106,2.925,3.123s.507.695.938.218l1.455-1.546s.289-.634.908,0S16.2,16.122,16.2,16.122l-.035,3.666a1.474,1.474,0,0,1-1.643,1.151c-1.491,0-11.154-.157-11.154-.157S2,21.116,2,19.458Z" transform="translate(-1.493 -6.236)" fill="#fff"/>
    </g>
  </g>
</svg>
