<svg xmlns="http://www.w3.org/2000/svg" width="253" height="17" viewBox="0 0 253 17">
  <g id="Group_4538" data-name="Group 4538" transform="translate(-59 -765)">
    <rect id="Rectangle_2293" data-name="Rectangle 2293" width="253" height="17" transform="translate(59 765)" fill="none"/>
    <path id="Path_5111" data-name="Path 5111" d="M2.793-29.762c0,3.913,2.408,7.156,6.864,7.156a7.1,7.1,0,0,0,3.515-.844l1.136,1.33h1.2l-1.6-1.816a7.147,7.147,0,0,0,2.612-5.825c0-3.913-2.409-7.156-6.864-7.156S2.793-33.675,2.793-29.762Zm.99,0c0-3.417,1.912-6.3,5.874-6.3s5.874,2.884,5.874,6.3a6.343,6.343,0,0,1-2.214,5.155L11.949-26.16H10.881L12.6-24.131a6.211,6.211,0,0,1-2.942.67C5.7-23.461,3.783-26.345,3.783-29.762Zm24.692,2.35h6.671L37.058-22.8h1.019L32.252-36.724h-.874L25.553-22.8h1.019Zm3.34-8.068L34.8-28.267H28.835Zm14.128-1.243H44.866L50.3-28.442V-22.8h.932v-5.641l5.438-8.282H55.595l-4.826,7.311ZM67.063-22.8h.931V-35.442L76.267-22.8h1.147V-36.724h-.932v12.641L68.208-36.724H67.061Zm23.663-4.612H97.4L99.307-22.8h1.019L94.5-36.724h-.874L87.8-22.8h1.019Zm3.34-8.068,2.981,7.214H91.084ZM111.65-22.8v-6.118H115.9l3.7,6.118h1.019l-3.671-6.118a3.606,3.606,0,0,0,3.651-3.9,3.609,3.609,0,0,0-3.747-3.9h-6.136V-22.8Zm5.2-13.069c1.961,0,2.777,1.476,2.777,3.049s-.816,3.049-2.777,3.049h-5.2v-6.1ZM131.5-22.8h.932V-36.724H131.5Zm12.2,0h.931V-35.442L152.9-22.8h1.147V-36.724h-.932v12.641l-8.274-12.641h-1.147Zm22.546-7.554v-5.515h8.078v-.854h-9.01V-22.8h.932v-6.7h7.709v-.854Zm18.76.592c0,3.913,2.409,7.156,6.864,7.156s6.864-3.243,6.864-7.156-2.409-7.156-6.864-7.156S185-33.675,185-29.762Zm.99,0c0-3.417,1.912-6.3,5.874-6.3s5.875,2.884,5.875,6.3-1.912,6.3-5.874,6.3-5.875-2.884-5.875-6.3Zm22.245,6.311a.742.742,0,0,0,.217.53.742.742,0,0,0,.529.218.742.742,0,0,0,.531-.217.742.742,0,0,0,.218-.531.742.742,0,0,0-.218-.531.742.742,0,0,0-.531-.217.742.742,0,0,0-.53.218.742.742,0,0,0-.217.53Zm14.614-3.961h6.67L231.43-22.8h1.019l-5.825-13.924h-.874L219.926-22.8h1.019Zm3.34-8.069,2.981,7.214h-5.963ZM244-23.655,252.958-36.2v-.526h-9.866v.854H251.6l-8.952,12.542v.526h10.311v-.854Z" transform="translate(57.625 803.019)" fill="#0e1013"/>
  </g>
</svg>
