<svg xmlns="http://www.w3.org/2000/svg" width="94" height="94" viewBox="0 0 94 94">
  <g id="Group_3284" data-name="Group 3284" transform="translate(-363 -2908)">
    <rect id="Rectangle_1877" data-name="Rectangle 1877" width="94" height="94" transform="translate(363 2908)" fill="none"/>
    <g id="Group_3283" data-name="Group 3283" transform="translate(366.685 2909.95)">
      <path id="Path_5112" data-name="Path 5112" d="M-6130.943-15565.827a41.709,41.709,0,0,1-16.379-3.31,41.688,41.688,0,0,1-11.061-6.866l16.634-9.223a24.831,24.831,0,0,0,10.806,2.442,25.161,25.161,0,0,0,25.132-25.133,25.149,25.149,0,0,0-25.132-25.12,25.145,25.145,0,0,0-25.128,25.12,25.068,25.068,0,0,0,3.8,13.3l-14.855,8.223a41.786,41.786,0,0,1-2.6-5.133,41.769,41.769,0,0,1-3.311-16.388,41.753,41.753,0,0,1,3.311-16.375,41.931,41.931,0,0,1,9.019-13.384,42.087,42.087,0,0,1,13.376-9.015,41.932,41.932,0,0,1,16.379-3.307,41.962,41.962,0,0,1,16.383,3.307,42.046,42.046,0,0,1,13.377,9.015,42,42,0,0,1,9.02,13.384,41.926,41.926,0,0,1,3.308,16.375,41.941,41.941,0,0,1-3.308,16.388,41.863,41.863,0,0,1-9.02,13.37,41.789,41.789,0,0,1-13.377,9.021A41.733,41.733,0,0,1-6130.943-15565.827Z" transform="translate(6175.14 15649.996)" fill="#ff692e"/>
      <path id="Path_5107" data-name="Path 5107" d="M6793.9,16146l-20.092,24.961-13.3-9.682,11.044-11.992Z" transform="translate(-6760.512 -16081.208)" fill="#ff8657"/>
    </g>
  </g>
</svg>
