<svg xmlns="http://www.w3.org/2000/svg" xmlns:xlink="http://www.w3.org/1999/xlink" width="289" height="206" viewBox="0 0 289 206">
  <defs>
    <clipPath id="clip-path">
      <rect id="background" width="289" height="206" transform="translate(654 864)" fill="none"/>
    </clipPath>
  </defs>
  <g id="qarabag" transform="translate(-654 -864)" clip-path="url(#clip-path)">
    <g id="qarabag-2" data-name="qarabag">
      <path id="Path_4978" data-name="Path 4978" d="M746.655,937.723c4.359-.56,17.311,5.168,25.593,5.542s15.692-4.3,16.626-11.644,3.532-3.082,7.847-5.082.737-8.419,2-13.786-3.473-15.048,6-14,27.993,2.947,37.885,7.472,21.047-9.892,25.467-12,5.893-3.157,8.313,0-1.263,11.786,7.577,16.732,9.682-1.263,10.523,1.789-.737,5.472,0,12.733-2.631,9.05,1.894,19.994,19.573,25.467,25.572,33.149,11.365,16.732,10,19.153-6,6.314-6.209,10-.283,16.795,0,18.983-14.492,2.189-16.817,9.713.41,9.85-3.01,10.26-17.921,6.156-19.426,8.208-12.039,14.775-12.586,17.785-4.1,10.944-7.935,15.048a56.716,56.716,0,0,1-8.482,7.251l-2.873,4.1s3.01,10.124,4.1,10.124,9.44-5.472,11.492-8.482,6.178-10.4,6.178-10.4h7.577s-1.43-6.293,0-7.387,8.134-7.8,8.134-7.8l2.39-4.925,9.786-2.462,1.642,2.462,7.8-2.462,5.472-4.788,4.1-11.9,16.69-10.124,8.892-5.609-3.967-7.251v-18.469l6.7-5.062v-6.818l-6.7-10.146v-15.6l-11.355-14.091-19.837-22.3V917.867l4.1-6.9-1.779-6.778-4.378-7.8-14.091-2.156-5.472-8.514,2.39-8.345-5.463-9.392-13.6,1.943-7.351,5.343-11.025,5.909L853.321,887l-5.585,4.128L835.754,890s-11.252-3.238-12.223-3-14.652-3.643-14.652-3.643l-15.3,2.356-9.309,3.067,2.509,7.6.648,8.667-3.157,9.795-4.048,5.909-2.347,7.2-3.886,5.1s-5.666.486-6.881,0a64.069,64.069,0,0,0-8.176-2.51,92.374,92.374,0,0,0-10.6,0c-.648.243-5.262,2.51-5.262,2.51Z" fill="#e5e5e5"/>
      <path id="Path_4977" data-name="Path 4977" d="M231.9,217.949l.768.525c1.28,1.857.065.7,1.979,1.761,2.19-.67,1.468-.214,2.755-1.708.954,1.538.841,1.538.967,3.518.023.373.048,2.51.058,2.56.652,3.225-.493,1.063,1.211,2.2-.068,2.5,7.136-1.287,9.551-1.387l1.024.533,4.666,1.5,2.748,1.262,1.8,5.664-4.839-1.824a27.888,27.888,0,0,1-5.622,4.355c4.717,6.1,4.093,3.5,3.637,6.331-2.563.235-2.176-.221-4.435-.928-2.444,1.819-3.15,3.043-5.21,5.222-.164-.11-.42-.454-.5-.318l-1.358-1.073c-.1-.082-.266-.264-.4-.394l-3.886.631L235.1,257.03l6.4,5.747c3.11,3.065,1.089,2.523,8.234,1.986,1.39,1.712,2.019,1.873,3.489,4.213l-1.773,2.555c4.939,9.073.208,2.487,7.695,8.555,1.959,1.587,2.271.611,4.543,1.665-1.546,2.822-1.178,1.723-4.591,2.944l-.249,2.983c-2.551.8-3.458,2.118-4.708,3.521l-1.754-3.5c-2.48.066-2.786.607-4.3,1.367l-7.08-2.461-.793,4.888a17.044,17.044,0,0,0,4.491,3.015c3.051,1.737,3.053,1,4.11,4.009,2.178,6.211,7.649,1.477,2.306,9.59l3.588.3c-.415,5.488-2.477-.346.32,9.85-2.685.346-3.263-.266-3.962,2.03-.592,1.946.44,1.235-1.074,3.785-.083.141-.232.3-.312.425l-.589.954c.807,2.414,2.957,3.893,4.506,5.064l.112,6.857c3.121-.683,12.964-11.3,15.531-14.308,2.053-2.4,2.133-4.312,3.144-7.578,5.134.194,4.59.235,8.67-1.533l-.72-5.45c3.295-2.428,5.972-5.343,9.451-7.93l.422-4.241L301.4,292.3l1.585,3.464a20.74,20.74,0,0,0,3.909-.976c3.172-1.371.367-.688,2.624-2.673,1.088-.957,4.912-2.119,6.865-3.638.184-8.222.414-10.4,9.233-16.623,1.529-1.08,1.685-1.772,3.453-2.55,1.374-.6,3.732-1.149,5.112-1.634,3.552-1.252,4.714-3.171,8.314-4.9.083-.128-.484-.161.988-1.249,1.021-.754.289-.327,1.856-.843,2.719-.9,2.172.081,3.374-1.787-1.063-2.066.782-.385-2.191-1.55a13.19,13.19,0,0,1-1.562-.626l-.915-.715c-1.772.395-1.223-2.357-1.66-4.716a30.347,30.347,0,0,0-1.683-5.679c-1.28-3.473-.524-8.879.518-12.625a11.961,11.961,0,0,0,7.078-3A44.2,44.2,0,0,0,346.474,223c-1.229-4.242-1.031-2.856-3.118-5.6-4.4-5.791-3.129-5.357-3.152-14.311-.02-7.367.705-5.957-5.05-12.475l-13.886-17.036c-7.135-9.451-11.558-10.119-11.861-27.635-.088-5.084,5.332-5.929,5.114-12.778-1.175-1.576-2.288-2.2-2.737-3.182-1.587-3.484,1.588-7.337-9.24-8.873-9-1.278-4.946-.163-14.855-10.132.379-3.211,2.6-6.346,1.924-9.169-.479-1.991-2.879-5.96-3.686-8.306-5.491.073-3.04.438-5.145,1.094-2.255.7-3.23-.2-5.644.356-4.251.976-4.572,3.173-7.361,4.763-3.517,2.005-2.178-.681-8.162,3.936-3.106,2.4-4.739,2.107-8.45,3.779L250.439,113c-1.3,1.454-6.059,4.534-7.729,5.467a39.4,39.4,0,0,1-11.808-3.049c-4.217-1.7-6.553-3.817-11.051-2.19-4.3-2-2.773-1.179-8.068-1.625l-3.2-3.146c-16.681,1.54-9.067,1.722-12.266,2.622l-6.388-.394-1.724,2.142-5.349-.45c-3.685.057-.958-.066-2.249.621-1.164,3.888.363,1.248,2.613,4.034a7.645,7.645,0,0,1-2.488,3.34c2.084.962,2.658,1.759,4.185,3.239-.244,11.294.864,9.73-2.591,13.426l1.381,3.511c-2.991,1.819-4.648,1.3-7.491,4.051.729,6.729.879,3.878-1.747,9.775-1.127,2.531-.83,3.574-7.734,5.385-5.243-4.243-5.892-2.769-13.454-3.588-4.6-.5-8.671.456-14.018,1.929-.113,1.908-.416,1.812.337,3.526.021.046.762,1.184.8,1.23,3.892,5.06,4.628-2.42,14.884,5.963.308.252,1.073,1.049,1.363,1.292,7.923,6.644,8.192,7.267,10.187,17.609,9.03.747,7.029,5.573,17.514,6.011,1.267,1.146,2.914,2.362,3.606,4.259,1.657,4.539-.326,2.431,4.324,4.38l.552,1.8c1.111.073.563-1.052,1.081.854,2.07,1.143,2.124,1.4,2.468,3.9l.415,1.541c2.72-.221,2.588-.3,4.19.685a42.953,42.953,0,0,1,3.695,3.228c1.164.119.931-.227.931.823,1.51,1.86,1.971,1.314,2.742,4.008.488,1.707,1.043,4.232,1.39,5.993.887-.6,1.239-.773,2.189-1.313l-.251-.48,3.43-.453c6.2-.4,4.832-.8,9.557-2.934l3.179-1.438,3.033-.7,1.019.074Zm-17.249-.743c-.218-5.878,8.027-5.888,6.67.053a10.383,10.383,0,0,1-6.67-.053Z" transform="translate(603.589 774.737)" fill="none" stroke="#000" stroke-width="6.5"/>
    </g>
  </g>
</svg>
