<svg xmlns="http://www.w3.org/2000/svg" width="24" height="24" viewBox="0 0 24 24">
  <g id="search" transform="translate(-1015 -139)">
    <rect id="Rectangle_5" data-name="Rectangle 5" width="24" height="24" transform="translate(1015 139)" fill="none"/>
    <path id="Path_31" data-name="Path 31" d="M20.572,19.554,14.96,13.942a0,0,0,0,1,0,0h0a8.4,8.4,0,0,0,1.985-5.047A8.477,8.477,0,1,0,.007,8.157a8.414,8.414,0,0,0,8.888,8.788,8.4,8.4,0,0,0,5.047-1.985h0l5.612,5.612a.72.72,0,0,0,1.018-1.018ZM1.623,10.11a7.057,7.057,0,0,1,8.488-8.488,7.581,7.581,0,0,1,5.222,5.222,7.057,7.057,0,0,1-8.488,8.488A7.581,7.581,0,0,1,1.623,10.11Z" transform="translate(1016.61 140.61)"/>
  </g>
</svg>
