<svg xmlns="http://www.w3.org/2000/svg" xmlns:xlink="http://www.w3.org/1999/xlink" width="289" height="206" viewBox="0 0 289 206">
  <defs>
    <clipPath id="clip-path">
      <rect id="background" width="289" height="206" transform="translate(332 865)" fill="none"/>
    </clipPath>
  </defs>
  <g id="teatr" transform="translate(-332 -865)" clip-path="url(#clip-path)">
    <g id="Teatr-2" data-name="Teatr" transform="translate(380.209 868.331)">
      <g id="Group_3320" data-name="Group 3320">
        <path id="Path_4940" data-name="Path 4940" d="M213.784,125.823s1.159.662-.883,5.134-7.895,10.268-7.895,10.268,9.5-2.153,10.048-2.65,4.251-9.385,4.251-9.385,1.38-4.14.883-4.527-6.4.662-6.4.662Z" fill="#e5e5e5"/>
        <path id="Path_4939" data-name="Path 4939" d="M193.275,186.249a16.319,16.319,0,0,1-3.452,6.717c-2.706,3.079-7,2.612-7,2.612a22.32,22.32,0,0,1-5.784-3.639c-2.239-2.146-12.222-6.717-12.222-6.717l14.927,17.727,2.239,13.062,6.344-2.426,4.945-18.753Z" fill="#e5e5e5"/>
        <path id="Path_4937" data-name="Path 4937" d="M60.581,69.742H61.3a15.246,15.246,0,0,1,1.869,7.007,19.273,19.273,0,0,1-.977,6.158l9.6,9.258s1.614-5.1,1.444-5.606-1.019-8.2-1.444-8.451-9.6-8.366-9.6-8.366" fill="#e5e5e5"/>
        <path id="Path_4938" data-name="Path 4938" d="M60.581,69.742H61.3a15.246,15.246,0,0,1,1.869,7.007,19.273,19.273,0,0,1-.977,6.158l9.6,9.258s1.614-5.1,1.444-5.606-1.019-8.2-1.444-8.451-9.6-8.366-9.6-8.366" transform="translate(60.123 -10)" fill="#e5e5e5"/>
        <path id="Path_4936" data-name="Path 4936" d="M119.843,124.484a14.823,14.823,0,0,1,4.012,8.117,44.425,44.425,0,0,1,0,12.688,34.758,34.758,0,0,1-5.131,14.928c-3.452,5.411-13.155,12.688-13.155,12.688l14.274-4.665,10.076-14.554,3.452-10.169V128.682l-5.318-15.3-2.8-3.172Z" fill="#e5e5e5"/>
        <path id="Path_4934" data-name="Path 4934" d="M138.714,7.644a33.805,33.805,0,0,0-3.626,13.244c-.158,6.78-2.838,15.767,0,31.061s5.992,37.211,11.983,51.243S154.008,130,150.7,139.3s-14.979,35.949-17.344,42.414-12.3,23.808-17.5,27.435a121.824,121.824,0,0,1-11.983,7.1l16.556-4.888,14.663-12.3,20.655-44.148L166.464,131.1V115.965l-8.83-19.394s-8.357-23.178-8.357-24.912V18.208Z" fill="#e5e5e5"/>
        <path id="Path_4935" data-name="Path 4935" d="M236.116,73.184s.243,23.378-1.7,32.6-12.371,33.96-13.22,44.148,3.032,34.2-3.032,41.844-29.352,35.537-38.205,40.874-11.279,12.25-15.767,14.8-11.765,5.822-11.765,5.822l11.765-2.547,14.433-8,26.562-23.772L221.2,204.75l6.671-7.641,4-15.767L230.537,158.9l5.579-24.985L251.4,103.475l3.032-10.431V86.859L242.544,75.943Z" fill="#e5e5e5"/>
      </g>
      <path id="Path_4946" data-name="Path 4946" d="M-2370.388-608.254v.3a45.48,45.48,0,0,1-11.234-1.419,42.738,42.738,0,0,1-24.4-16.393,60.148,60.148,0,0,1-8.393-17.45,25.045,25.045,0,0,0-.9-2.53,47.382,47.382,0,0,1-5,.266,45.642,45.642,0,0,1-18.374-3.823,46.1,46.1,0,0,1-8-4.492,46.384,46.384,0,0,1-6.927-5.954c-16.08-16.833-26.013-27.222-32.585-34.1-5.428-5.676-8.152-8.527-9.517-9.962-1.391-1.462-1.412-1.5-1.459-1.616a43.714,43.714,0,0,1-6.447-17.437,70.651,70.651,0,0,1,.438-21.93c4.2-26.045-4.645-45.841-11.107-60.3-1.823-4.077-3.4-7.6-4.421-10.7a19.366,19.366,0,0,1-.575-13.352,18.856,18.856,0,0,1,8.172-10.426A190.5,190.5,0,0,1-2489.5-850.83a174.291,174.291,0,0,1,22.223-8.052,167.187,167.187,0,0,1,22.787-4.835,168.71,168.71,0,0,1,23.308-1.614,184.649,184.649,0,0,1,39.35,4.366,18.936,18.936,0,0,1,11.045,7.266,19.46,19.46,0,0,1,3.781,12.8l-1.432,20.992a167.012,167.012,0,0,1,25.9,2.162,160.8,160.8,0,0,1,25.2,6.257,165.548,165.548,0,0,1,24.115,10.335,181.849,181.849,0,0,1,22.967,14.4,18.44,18.44,0,0,1,6.929,10.82A19.056,19.056,0,0,1-2265-763.059l-10.732,20.308a86.275,86.275,0,0,0-10.3,46.421c1.107,15.647-2,28.2-9.24,37.312l-.021.024c-.023.023-.051.056-.08.089a1.606,1.606,0,0,1-.3.289l-45.415,39.65a44.393,44.393,0,0,1-29.3,11.011ZM-2370.388-608.254Zm-5.293-69.877-2.739,5.867a45.9,45.9,0,0,1-5.463,8.978,45.941,45.941,0,0,1-7.249,7.4,46.117,46.117,0,0,1-8.715,5.582,46.42,46.42,0,0,1-9.5,3.441c.207.482.446,1.214.748,2.147,2.139,6.6,7.824,24.125,28.427,29.5a39.041,39.041,0,0,0,9.7,1.229,38.575,38.575,0,0,0,25.425-9.537l45.256-39.495c6.167-7.821,8.788-18.912,7.791-32.964a88.422,88.422,0,0,1,2.05-25.748,97.564,97.564,0,0,1,8.915-23.853l10.729-20.357a12.492,12.492,0,0,0-3.569-15.963c-28.731-21.1-60.676-31.874-94.956-32.033a89.35,89.35,0,0,0,9.905,45.237c7.671,14.384,10.024,27.565,6.995,39.176l-.006.02c-.05.15-.1.3-.149.451l-.013.032-6.148,13.224c1.188.185,2.482.446,3.94.8l.005,0a42.51,42.51,0,0,1,30.4,51.761,42.447,42.447,0,0,1-12.019,20.3,2.913,2.913,0,0,1-1.992.8,3.128,3.128,0,0,1-1.3-.29l-.01-.005a2.952,2.952,0,0,1-1.669-2.9,31.067,31.067,0,0,0-23.143-32.079,29.966,29.966,0,0,0-7.6-.968A33.19,33.19,0,0,0-2375.681-678.131ZM-2508.1-834.493a13.248,13.248,0,0,0-5.144,16.376l.008.022c.967,2.975,2.527,6.474,4.333,10.524,3.227,7.236,7.244,16.242,9.875,26.866a93.826,93.826,0,0,1,2.652,17.181,89.985,89.985,0,0,1-1,19.628c-2.344,14.458-.659,26.2,5,34.915l43.052,45.058a40.312,40.312,0,0,0,29.033,12.445h0a40.793,40.793,0,0,0,6.652-.55,40.127,40.127,0,0,0,29.912-22.744l26.211-56.535c2.536-10.081.333-21.741-6.549-34.657a89.728,89.728,0,0,1-7.252-18.148,92.817,92.817,0,0,1-3.02-17c-.934-10.837-.034-20.661.688-28.555.413-4.507.769-8.4.726-11.642v-.023a13.327,13.327,0,0,0-10.2-13.828,178.538,178.538,0,0,0-38.033-4.217C-2451.475-859.381-2480.729-851.008-2508.1-834.493Zm136.5,150.132a34.966,34.966,0,0,1,9.13,1.2,36.83,36.83,0,0,1,18.563,11.544,37.123,37.123,0,0,1,5.833,9.134,36.808,36.808,0,0,1,2.851,9.822,35.987,35.987,0,0,0,5.678-12.084,36.228,36.228,0,0,0-3.865-27.664,36.309,36.309,0,0,0-22.294-16.847,39.031,39.031,0,0,0-5.107-.87l-11.988,25.784c.4-.013.8-.019,1.194-.019Zm-55.125-1.462a42.918,42.918,0,0,1-11.065-1.445,42.968,42.968,0,0,1-9.96-4.056,44.938,44.938,0,0,1-15.349-14.3,44.421,44.421,0,0,1-7.136-19.516,42.772,42.772,0,0,1,.166-10.785,44.166,44.166,0,0,1,3.052-10.935,2.8,2.8,0,0,1,2.66-1.846l.138,0a3.014,3.014,0,0,1,2.724,1.948,32.365,32.365,0,0,0,30.3,21.2,32.373,32.373,0,0,0,5.277-.436,32.277,32.277,0,0,0,26.976-31.1v-.007a3.008,3.008,0,0,1,1.948-2.723l.007,0a2.88,2.88,0,0,1,.959-.162,3.121,3.121,0,0,1,2.266.991l.005.006a44.277,44.277,0,0,1,6.871,10.266,42.982,42.982,0,0,1,3.589,11.149,44.5,44.5,0,0,1-1.895,22.494,44.1,44.1,0,0,1-12.535,18.558,42.661,42.661,0,0,1-9.773,6.4,44.767,44.767,0,0,1-11.854,3.684A45.175,45.175,0,0,1-2426.723-685.823Zm0-.3Zm-29.595-20.083a37.59,37.59,0,0,0,29.581,14.444h0a39.127,39.127,0,0,0,6.377-.53,37.881,37.881,0,0,0,28.393-21.807,37.913,37.913,0,0,0-1.938-35.117,38.023,38.023,0,0,1-3.837,9.962,38.372,38.372,0,0,1-6.873,8.94,38.129,38.129,0,0,1-20.31,10.234,38.6,38.6,0,0,1-6.2.5,38.471,38.471,0,0,1-18.984-5.03,38.178,38.178,0,0,1-13.592-13.079A37.681,37.681,0,0,0-2456.318-706.207Zm138.994-13.534v.3a21.522,21.522,0,0,1-5.383-.695,21.363,21.363,0,0,1-5.478-2.258,20.448,20.448,0,0,1-4.381-3.466,21.127,21.127,0,0,1-5.186-9.382,21.275,21.275,0,0,1,.049-10.787,20.885,20.885,0,0,1,5.891-9.765,2.907,2.907,0,0,1,2-.787,3.117,3.117,0,0,1,1.289.281l.016.008a3.118,3.118,0,0,1,1.664,2.887v.008a12.491,12.491,0,0,0,9.353,12.975,12.462,12.462,0,0,0,3.135.4,12.585,12.585,0,0,0,11.36-7.209l.006-.013a3.1,3.1,0,0,1,2.744-1.668l.142,0h.014a3.088,3.088,0,0,1,2.662,2.005l0,.007a20.718,20.718,0,0,1-3,18.743,21.484,21.484,0,0,1-7.273,6.315,20.663,20.663,0,0,1-9.622,2.394ZM-2317.324-719.741Zm-13.71-14.123a15.016,15.016,0,0,0,9.78,8.033,15.234,15.234,0,0,0,3.776.48,15.255,15.255,0,0,0,14.962-12.9,18.629,18.629,0,0,1-11.789,4.213,18.725,18.725,0,0,1-4.642-.588,18.442,18.442,0,0,1-12.578-11.154A14.97,14.97,0,0,0-2331.033-733.864Zm-150.523-30.54a21.59,21.59,0,0,1-5.152-10.6,22.025,22.025,0,0,1,.956-11.12,21.808,21.808,0,0,1,6.2-9.158,21.072,21.072,0,0,1,4.821-3.154,22.052,22.052,0,0,1,5.839-1.812,22.6,22.6,0,0,1,3.668-.3,21.339,21.339,0,0,1,10.384,2.7,22.073,22.073,0,0,1,7.574,7.034,21.84,21.84,0,0,1,3.518,9.637,21.445,21.445,0,0,1-1.6,10.777,2.967,2.967,0,0,1-2.735,1.841h-.064a3.011,3.011,0,0,1-2.723-1.948,13.249,13.249,0,0,0-12.356-8.612,13.272,13.272,0,0,0-2.157.177,13.136,13.136,0,0,0-10.98,12.647v.007a3.012,3.012,0,0,1-1.948,2.723l-.008,0a2.922,2.922,0,0,1-.968.162A3.041,3.041,0,0,1-2481.557-764.4Zm13.612-29.937a15.777,15.777,0,0,0-10.992,7.6,15.666,15.666,0,0,0-1.5,12.487,19.142,19.142,0,0,1,5.334-6.7,18.9,18.9,0,0,1,8.713-3.854,19.392,19.392,0,0,1,3.108-.252,19.22,19.22,0,0,1,13.632,5.708,15.549,15.549,0,0,0-4.485-10.5,15.854,15.854,0,0,0-11.224-4.705A16.2,16.2,0,0,0-2467.945-794.34Zm46.107,20.058a21.527,21.527,0,0,1-5.157-10.563,21.989,21.989,0,0,1,.93-11.1,21.818,21.818,0,0,1,6.178-9.179,21.123,21.123,0,0,1,4.82-3.171,22.026,22.026,0,0,1,5.841-1.83,22.409,22.409,0,0,1,3.651-.3,21.255,21.255,0,0,1,10.382,2.71,22.121,22.121,0,0,1,7.564,7.042,21.956,21.956,0,0,1,3.53,9.653,21.276,21.276,0,0,1-1.587,10.742,2.811,2.811,0,0,1-2.512,1.8c-.062.008-.14.017-.166.023l-.055.023-.065,0a3.011,3.011,0,0,1-2.723-1.948A13.129,13.129,0,0,0-2403.511-789a13.259,13.259,0,0,0-2.157.177,13.137,13.137,0,0,0-10.979,12.648v.007a3.014,3.014,0,0,1-1.948,2.723l-.008,0a2.922,2.922,0,0,1-.968.162A3.042,3.042,0,0,1-2421.838-774.282Zm16.19-30.147a16.028,16.028,0,0,0-2.577.211,15.738,15.738,0,0,0-10.954,7.515,15.837,15.837,0,0,0-1.579,12.576,19.448,19.448,0,0,1,5.372-6.7,18.966,18.966,0,0,1,8.719-3.854,19.39,19.39,0,0,1,3.108-.252,19.224,19.224,0,0,1,13.632,5.708,15.538,15.538,0,0,0-4.488-10.484A15.868,15.868,0,0,0-2405.648-804.429Z" transform="translate(2519.967 865.039)"/>
    </g>
  </g>
</svg>
