<svg xmlns="http://www.w3.org/2000/svg" width="36" height="36" viewBox="0 0 36 36">
  <g id="tgm" transform="translate(-896 -1275)">
    <circle id="Ellipse_14" data-name="Ellipse 14" cx="18" cy="18" r="18" transform="translate(896 1275)"/>
    <g id="tgm-2" data-name="tgm" transform="translate(904.182 1283.182)">
      <rect id="Rectangle_1802" data-name="Rectangle 1802" width="20" height="20" transform="translate(-0.182 -0.182)" fill="none" opacity="0"/>
      <path id="Path_20" data-name="Path 20" d="M42.317,64.361,39.848,76.006c-.186.822-.672,1.026-1.363.639l-3.762-2.773-1.815,1.746a.945.945,0,0,1-.756.369l.27-3.832,6.973-6.3c.3-.27-.066-.42-.471-.15L30.3,71.133l-3.711-1.162c-.807-.252-.822-.807.168-1.194l14.517-5.593C41.948,62.933,42.537,63.334,42.317,64.361Z" transform="translate(-24.364 -60.155)" fill="#fff"/>
    </g>
  </g>
</svg>
