<svg id="twit" xmlns="http://www.w3.org/2000/svg" width="36" height="36" viewBox="0 0 36 36">
  <circle id="Ellipse_13" data-name="Ellipse 13" cx="18" cy="18" r="18"/>
  <g id="twit-2" data-name="twit" transform="translate(8.182 8.182)">
    <rect id="Rectangle_1802" data-name="Rectangle 1802" width="20" height="20" transform="translate(-0.182 -0.182)" fill="none" opacity="0"/>
    <path id="iconfinder_317720_social_media_tweet_twitter_social_icon" data-name="iconfinder_317720_social media_tweet_twitter_social_icon" d="M16.887,4.624a6.876,6.876,0,0,1-1.99.545,3.477,3.477,0,0,0,1.524-1.916,6.938,6.938,0,0,1-2.2.84,3.469,3.469,0,0,0-5.9,3.16,9.837,9.837,0,0,1-7.141-3.62A3.47,3.47,0,0,0,2.248,8.26,3.454,3.454,0,0,1,.679,7.826c0,.014,0,.03,0,.043a3.466,3.466,0,0,0,2.779,3.4,3.48,3.48,0,0,1-1.564.06,3.469,3.469,0,0,0,3.235,2.406,6.949,6.949,0,0,1-4.3,1.484A7,7,0,0,1,0,15.168a9.813,9.813,0,0,0,5.31,1.555,9.79,9.79,0,0,0,9.857-9.857c0-.15,0-.3-.011-.449A7.028,7.028,0,0,0,16.887,4.624Z" transform="translate(1.374 -0.043)" fill="#fff"/>
  </g>
</svg>
