<svg xmlns="http://www.w3.org/2000/svg" width="36" height="36" viewBox="0 0 36 36">
  <g id="wp" transform="translate(-0.333)">
    <circle id="Ellipse_12" data-name="Ellipse 12" cx="18" cy="18" r="18" transform="translate(0.333 0)"/>
    <g id="wp-2" data-name="wp" transform="translate(8.515 8.182)">
      <rect id="Rectangle_1802" data-name="Rectangle 1802" width="20" height="20" transform="translate(-0.182 -0.182)" fill="none" opacity="0"/>
      <path id="Path_21" data-name="Path 21" d="M-4022.557,16.882a8.419,8.419,0,0,1-4.325-1.191l-3.826,1.06,1.087-3.683A8.4,8.4,0,0,1-4031,8.443a8.387,8.387,0,0,1,2.473-5.97A8.386,8.386,0,0,1-4022.557,0a8.389,8.389,0,0,1,5.97,2.472,8.381,8.381,0,0,1,2.473,5.967,8.387,8.387,0,0,1-2.473,5.97A8.388,8.388,0,0,1-4022.557,16.882Zm-3.127-12.652a2.017,2.017,0,0,0-.257.012,1.027,1.027,0,0,0-.646.406,2.754,2.754,0,0,0-.486.883c0,.017-.01.034-.016.05v0l-.014.046a2.472,2.472,0,0,0,.055,1.508,8.287,8.287,0,0,0,.744,1.57,8.6,8.6,0,0,0,1.679,1.98,7.985,7.985,0,0,0,2.073,1.48,7.191,7.191,0,0,0,2.255.657c.07.006.143.01.214.01a2.5,2.5,0,0,0,.887-.163,2.319,2.319,0,0,0,.542-.292,1.751,1.751,0,0,0,.726-1.153v-.011a2.082,2.082,0,0,0,.011-.459.308.308,0,0,0-.177-.254l-1.282-.587-.25-.114-.516-.236a.192.192,0,0,0-.081-.018.189.189,0,0,0-.145.066l-.924,1.042a.258.258,0,0,1-.193.089.247.247,0,0,1-.1-.019,6.545,6.545,0,0,1-1.779-1.094,6.637,6.637,0,0,1-1.5-1.859,1.622,1.622,0,0,0,.636-.83.012.012,0,0,1,0-.007,1.4,1.4,0,0,0-.032-.917,9.664,9.664,0,0,0-.695-1.584c-.02-.02-.042-.04-.051-.048a.617.617,0,0,0-.383-.153c-.048,0-.1,0-.156,0Z" transform="translate(4032.103 1.377)" fill="#fff"/>
    </g>
  </g>
</svg>
