<svg xmlns="http://www.w3.org/2000/svg" xmlns:xlink="http://www.w3.org/1999/xlink" width="289" height="206" viewBox="0 0 289 206">
  <defs>
    <clipPath id="clip-path">
      <rect id="background" width="289" height="206" transform="translate(977 864)" fill="none"/>
    </clipPath>
  </defs>
  <g id="xalca" transform="translate(-977 -864)" clip-path="url(#clip-path)">
    <g id="xalca-2" data-name="xalca">
      <path id="Path_4986" data-name="Path 4986" d="M1183.442,944.621l32.368,40.46-32.368,41.847,9.71,12.022,6.7-6.473,36.992-45.084v-5.086l-41.385-51.326-6.242,6.474Z" transform="translate(2)" fill="#e5e5e5"/>
      <path id="Path_4988" data-name="Path 4988" d="M1255.512,896.236s-6.209,8.419,0,13.365,9.05,6.84,9.05,6.84v134.7s-9.576,6.419-9.05,11.155-.316,7.366,2.1,10.629,6.946,3.052,6.946,3.052l6.946-1.157.947-163.324-.947-15.259-17.048-.947Z" fill="#e5e5e5"/>
      <path id="Path_4987" data-name="Path 4987" d="M1213.731,908.978c.506.651.342,15.561,10.26,28.318s20.795,17.785,20.795,17.785v58.53a73.491,73.491,0,0,0-20.613,17.242c-9.918,11.834-14,30.842-14,30.842l9.171.915h17.374l4.378-11.355,12.039-8.755,4.925-1.368V930.593l-10.808-4.651-9.3-14.638v-2.326Z" fill="#e5e5e5"/>
      <path id="Path_4985" data-name="Path 4985" d="M-1339.47-2070.267v-12.542h-10.464v12.542a3.407,3.407,0,0,1-3.408,3.408,3.407,3.407,0,0,1-3.409-3.408v-12.542h-10.464v12.542a3.407,3.407,0,0,1-3.408,3.408,3.407,3.407,0,0,1-3.409-3.408v-12.542H-1384.5v12.542a3.408,3.408,0,0,1-3.408,3.408,3.407,3.407,0,0,1-3.408-3.408v-12.542h-10.463v12.542a3.408,3.408,0,0,1-3.408,3.408,3.407,3.407,0,0,1-3.408-3.408v-12.542h-10.465v12.542a3.408,3.408,0,0,1-3.408,3.408,3.407,3.407,0,0,1-3.408-3.408v-12.542h-10.465v12.542a3.408,3.408,0,0,1-3.408,3.408,3.408,3.408,0,0,1-3.408-3.408v-12.542h-10.463v12.542a3.408,3.408,0,0,1-3.408,3.408,3.407,3.407,0,0,1-3.408-3.408v-12.542H-1470.9v12.542a3.408,3.408,0,0,1-3.408,3.408,3.408,3.408,0,0,1-3.408-3.408v-12.542h-10.465v12.542a3.407,3.407,0,0,1-3.408,3.409,3.408,3.408,0,0,1-3.408-3.409c0-41.4.007,59.392,0-211.323a3.408,3.408,0,0,1,3.408-3.408,3.407,3.407,0,0,1,3.408,3.408v12.542h10.466v-12.542a3.409,3.409,0,0,1,3.409-3.408,3.408,3.408,0,0,1,3.408,3.408v12.542h10.464v-12.542a3.408,3.408,0,0,1,3.408-3.408,3.408,3.408,0,0,1,3.408,3.408v12.542h10.464v-12.542a3.408,3.408,0,0,1,3.408-3.408,3.408,3.408,0,0,1,3.408,3.408v12.542h10.465v-12.542a3.408,3.408,0,0,1,3.408-3.408,3.408,3.408,0,0,1,3.408,3.408v12.542h10.464v-12.542a3.409,3.409,0,0,1,3.409-3.408,3.408,3.408,0,0,1,3.408,3.408v12.542h10.464v-12.542A3.408,3.408,0,0,1-1387.9-2285a3.407,3.407,0,0,1,3.408,3.408v12.542h10.464v-12.542a3.407,3.407,0,0,1,3.408-3.408,3.407,3.407,0,0,1,3.408,3.408v12.542h10.465v-12.542a3.407,3.407,0,0,1,3.408-3.408,3.407,3.407,0,0,1,3.408,3.408v12.542h10.465v-12.542a3.407,3.407,0,0,1,3.408-3.408,3.407,3.407,0,0,1,3.408,3.408c0,65.919,0,145.46,0,211.324a3.406,3.406,0,0,1-3.408,3.408A3.407,3.407,0,0,1-1339.47-2070.267Zm-148.708-19.358h148.71v-172.606h-148.71Zm30.029-6.817a3.408,3.408,0,0,1-3.408-3.409,16.414,16.414,0,0,0-16.4-16.4,3.408,3.408,0,0,1-3.408-3.409V-2232.2a3.408,3.408,0,0,1,3.408-3.408,16.415,16.415,0,0,0,16.4-16.4,3.408,3.408,0,0,1,3.408-3.408h88.655a3.406,3.406,0,0,1,3.408,3.408,16.414,16.414,0,0,0,16.394,16.4,3.406,3.406,0,0,1,3.408,3.407v112.546a3.406,3.406,0,0,1-3.408,3.409,16.413,16.413,0,0,0-16.394,16.4,3.407,3.407,0,0,1-3.408,3.409Zm-16.394-132.6v106.227a23.27,23.27,0,0,1,19.553,19.556h82.337a23.267,23.267,0,0,1,19.552-19.556v-106.227a23.266,23.266,0,0,1-19.552-19.556h-82.337A23.269,23.269,0,0,1-1474.544-2229.043Zm58.078,110.141-44.141-54.908a3.409,3.409,0,0,1,0-4.273l44.114-54.878a3.534,3.534,0,0,1,5.313,0l44.142,54.877a3.41,3.41,0,0,1,0,4.271l-44.114,54.908a3.391,3.391,0,0,1-2.657,1.275A3.4,3.4,0,0,1-1416.466-2118.9Zm-37.11-57.045,39.766,49.466,39.742-49.466-39.766-49.44Z" transform="translate(2608.029 3161.267)"/>
    </g>
  </g>
</svg>
