<svg xmlns="http://www.w3.org/2000/svg" xmlns:xlink="http://www.w3.org/1999/xlink" width="289" height="206" viewBox="0 0 289 206">
  <defs>
    <clipPath id="clip-path">
      <rect id="background" width="289" height="206" transform="translate(1300 865)" fill="none"/>
    </clipPath>
  </defs>
  <g id="qarabagdaki_irsimiz" data-name="qarabagdaki irsimiz" transform="translate(-1300 -865)" clip-path="url(#clip-path)">
    <g id="qarabagdaki_irsimiz-2" data-name="qarabagdaki irsimiz">
      <path id="Path_4980" data-name="Path 4980" d="M1414.466,879.711c1.619,1.457,25.337,22.342,30.356,31.408s16.595,31.084,23.718,36.508,9.714,7.366,9.714,12.628-4.533,26.787-3.586,29.1,1.579,3.894,1.579,3.894-10.208-4.314-11.681,1.894,2.266,20.1,3.974,23.783.025,10-6.5,16.1-11.786,15.891-27.361,24.625a273.9,273.9,0,0,1-31.465,14.838l3.789,3.262s15.364-1.579,17.153-2.21,39.357-24.73,39.357-24.73l18.206-22.1-1.157-4.63-6.84-16.1-1.157-6,3.683-1.894,7.156,2.841,3.052-.947v-5.262l-4.736-7.366,6.63-35.569,1.894-4.1s-19.258-23.573-19.468-24.309-12-17.785-12.733-18.521-30.307-25.572-30.307-25.572l-9.892-3.788-3.376,2.218" fill="#e5e5e5"/>
      <path id="Path_4981" data-name="Path 4981" d="M1543.016,919.865c-.113-.03-.266-.081-.747-.256-1.54-.549-6.724-2.745-10.909-2.011-4.614.809-9.957,2.266-13.033,8.338s-5.829,12.143-3.076,21.856,7.447,14.652,10.281,22.666,3.754,22.1,5.828,26.342,12.471,13.27,22.458,18.058,16.69,11.218,21.2,19.837,8.072,19.563,8.619,25.172.547,7.525-1.642,9.44-9.44,2.189-9.44,2.189l12.586,1.368,6.156-1.368,4.925-11.628s-6.977-22.162-7.524-23.12-11.9-20.384-11.9-20.384l-7.661-10.944-9.987-2.6-14.365-6.019-5.472-5.883-2.736-6.293-2.052-19.836-9-23.12v-10.4l2.978-5.335,10.807-2.053s12.176,5.2,10.534,3.831-6.834-6.567-6.834-6.567Z" fill="#e5e5e5"/>
      <path id="Path_4982" data-name="Path 4982" d="M1510.639,1023.321a29.787,29.787,0,0,0,6.152,18.294c6.961,9.147,11.738,19.914,14.733,20.723s8.743-1.943,8.743-1.943l-1.862-5.424s-12.952-10.361-13.114-11.009-7.852-19.347-8.5-20.642-3.724-8.176-3.724-8.176l-3.319,3.157Z" fill="#e5e5e5"/>
      <path id="Path_4983" data-name="Path 4983" d="M1519.668,976.265c-2.3.623-15.256,6.787-16.688,18.681s-1.557,14.384-.685,16.688,6.787.249,6.787,0-1.37-7.846-1.059-8.718a51.892,51.892,0,0,1,4.048-7.036c.872-1,8.593-10.772,8.593-10.772Z" fill="#e5e5e5"/>
      <path id="Path_4984" data-name="Path 4984" d="M-1755.8-1958.731a45,45,0,0,1-8.178-2.773,37.631,37.631,0,0,1-7.469-4.485l-.007-.005a31.027,31.027,0,0,1-6.1-6.37,30.651,30.651,0,0,1-4.07-7.822,26.172,26.172,0,0,1-1.49-8.788,22.257,22.257,0,0,1,1.868-8.812,23.315,23.315,0,0,1,4.989-7.391,7.67,7.67,0,0,1,.632-.6c.077-.068.149-.13.211-.188l.029-.026.374-.334a6.57,6.57,0,0,1,.536-.446l1.055-.814,1.4-.936,1.157-.663c.181-.108.378-.212.6-.318l.477-.234c.081-.038.169-.082.263-.129.222-.112.473-.238.762-.351a31.162,31.162,0,0,1,8.4-2.294,38.849,38.849,0,0,1,4.3-.332l.065,0h.242c1.193,0,2.606.019,4.043.161,1.248.1,2.6.284,4.245.581l.065.013c.2.042.394.083.6.124.477.1.97.2,1.478.33l1.054.262.986.284a39.328,39.328,0,0,1,7.972,3.307l-1.911,3.514a35.249,35.249,0,0,0-7.172-2.921l-.949-.266-.994-.239c-.4-.1-.815-.184-1.259-.27-.2-.04-.409-.079-.618-.122-1.507-.26-2.725-.418-3.831-.5l-.041,0c-.9-.083-1.859-.12-3.124-.12-.224,0-.464,0-.733,0a35.02,35.02,0,0,0-3.822.318l-.037.005a26.959,26.959,0,0,0-7.3,2.048l-.081.034c-.121.047-.275.125-.437.209-.105.053-.213.108-.331.165l-.472.236c-.109.052-.2.1-.269.143l-.039.023-1.045.609-1.152.778-.995.777c-.071.052-.154.129-.211.181l-.023.022-.365.329c-.1.09-.19.174-.274.247-.13.116-.254.226-.328.309l-.035.039-.036.037a18.984,18.984,0,0,0-4.059,6.084l-.02.046a17.887,17.887,0,0,0-1.456,7.109,21.93,21.93,0,0,0,1.292,7.308,26.8,26.8,0,0,0,8.752,12.074,33.072,33.072,0,0,0,6.582,3.9,40.437,40.437,0,0,0,7.357,2.445,57.232,57.232,0,0,0,12.9,1.384c.91,0,1.847-.018,2.785-.054h.011a75.369,75.369,0,0,0,7.916-.713,77.392,77.392,0,0,0,7.813-1.494l.005,0c2.552-.625,5.125-1.383,7.653-2.254,2.369-.815,4.787-1.786,7.394-2.973a85.42,85.42,0,0,0,13.8-7.943c2.073-1.466,4.181-3.119,6.266-4.91a78.315,78.315,0,0,0,5.76-5.473c1.827-1.921,3.574-3.94,5.195-6.007l1.219-1.613c.244-.322.481-.659.732-1.015.138-.2.281-.4.426-.6l.013-.017c.3-.405.578-.837.875-1.294l.2-.3.809-1.241.236-.4,1.05-1.779c.132-.217.263-.462.4-.722l.531-.994c.456-.818.863-1.666,1.294-2.563.149-.312.3-.635.461-.956,1.306-2.9,2.222-5.162,2.967-7.347l.017-.047c.364-.984.676-1.979,1.007-3.033.078-.25.157-.5.236-.75l.009-.027c.13-.391.243-.8.363-1.234.057-.206.116-.419.177-.634.065-.237.131-.473.2-.708.118-.416.229-.808.328-1.2l.718-2.928.626-2.95c.081-.405.153-.81.229-1.238.043-.243.086-.485.131-.728.51-2.737.856-5.533,1.128-7.912l.178-2c.016-.2.035-.4.053-.6.042-.473.083-.918.1-1.355v-.02c.02-.374.043-.75.065-1.113.06-.995.118-1.934.131-2.88v-.028l.057-2.008,0-2.021v-.013c.011-1.005-.023-2-.059-3.059q-.016-.467-.031-.932v-.022c-.01-.5-.044-1.014-.079-1.554-.009-.131-.018-.263-.026-.393l-.129-2-.192-1.984c-.02-.195-.038-.388-.057-.582-.044-.475-.086-.924-.15-1.357l-.006-.045a92.839,92.839,0,0,0-3.219-15.569l-.618-1.92c-.039-.117-.076-.236-.114-.354-.062-.193-.121-.378-.182-.558l-1.035-2.812c-.15-.375-.306-.746-.47-1.137q-.144-.346-.288-.691l-.013-.031c-.333-.848-.726-1.676-1.142-2.552-.16-.338-.326-.688-.488-1.038l-.01-.021c-.111-.248-.248-.506-.4-.78l0-.008-1.162-2.2-.234-.4-1.308-2.207-.016-.023-.022-.031-.094-.138c-.032-.042-.076-.092-.121-.146l-.005-.006-.091-.094-.025-.026-.011-.009-.049-.044a1.8,1.8,0,0,0-1.194-.432,1.959,1.959,0,0,0-.323.027,2.175,2.175,0,0,0-1.458.895l-.03.046a1.774,1.774,0,0,0-.257.745l-.007.053c0,.01,0,.02,0,.03,0,.044,0,.1-.008.16,0,.035,0,.077,0,.123s0,.1,0,.157l.057,1.011a63.259,63.259,0,0,1-.142,8.573,47.45,47.45,0,0,1-1.5,8.582l-.01.033-.317,1.071-.335,1.01a7.671,7.671,0,0,1-1.629,2.752,7.226,7.226,0,0,1-1.25,1.079l-.083.054a7.364,7.364,0,0,1-1.45.734,7.565,7.565,0,0,1-2.727.487c-.139,0-.282,0-.422-.011l-.033,0a7.94,7.94,0,0,1-3.057-.817l-.011-.005a7.557,7.557,0,0,1-2.534-2.053,7.436,7.436,0,0,1-1.421-2.964l-.012-.055c-.008-.041-.017-.084-.026-.126a5.356,5.356,0,0,1-.106-.634c-.027-.227-.05-.431-.063-.619l-.247-3.021-.205-2.032c-.079-.891-.192-1.769-.311-2.7-.052-.412-.107-.838-.157-1.261-.35-2.382-.777-5.141-1.417-7.783l-.008-.034a59.184,59.184,0,0,0-5.391-14.624,61.765,61.765,0,0,0-6.947-10.214c-.147.06-.293.119-.442.176a12,12,0,0,1-4.249.788,11.3,11.3,0,0,1-1.456-.094,13.867,13.867,0,0,1-5.172-1.793,21.253,21.253,0,0,1-4.005-3.021,32.568,32.568,0,0,1-3.193-3.506c-1.047-1.3-2.083-2.7-3.093-4.157a7.568,7.568,0,0,0-.814,1.034l-.007.01c-.291.433-.589.924-.94,1.549l0,.008-.233.413c-.262.463-.532.943-.826,1.432l0,.005a18.621,18.621,0,0,1-1.394,2.01l-.005.006c-.715.884-1.661,2.046-2.633,3.208-1.9,2.279-3.7,4.334-5.479,6.284a115.446,115.446,0,0,1-12.169,11.628l-.007.006c-2.181,1.761-4.418,3.472-6.652,5.085l-.014.01c-2.63,1.866-4.843,3.352-6.964,4.674l-.006,0c-1.968,1.216-4.576,2.793-7.289,4.2l-.956.509-.935.465c-.218.107-.436.216-.652.325-.4.2-.812.405-1.229.6l-.032.015-.857.393c-.966.445-1.965.9-2.992,1.319-1.052.458-2.12.858-3.154,1.245l-.786.3-.042.015c-.452.159-.906.309-1.344.453-.22.073-.441.145-.661.219l-.021.007-.324.107c-.229.076-.465.156-.719.23l-.016.005-2.6.733-.516.123-2.084.485a36.431,36.431,0,0,1-4.435.618h-.005c-1.127.09-2.244.145-3.323.2-1.649.08-3.206.156-4.713.349a17.66,17.66,0,0,0-3.416.723l-.014.005a12.966,12.966,0,0,0-1.9.8c-.391.252-.789.487-1.187.7l-1.619,1.051-.094-.156-.1.054-3.071-5.176.1-.064-.093-.156,1.747-.918c.354-.224.718-.44,1.088-.642a15.029,15.029,0,0,0,1.849-1.479,25.776,25.776,0,0,0,2.593-2.838l0,0a38.921,38.921,0,0,0,2.322-3.263c.675-1.034,1.363-2.185,2.106-3.523a130.989,130.989,0,0,0,6.984-15.329c1.05-2.682,2.067-5.394,3.05-8.016q.124-.341.249-.683c.391-1.072.8-2.181,1.147-3.271l0-.011c.08-.245.162-.488.245-.732.148-.437.286-.849.414-1.265l0-.01.637-2.042c.884-2.874,1.727-5.837,2.542-8.7.734-2.576,1.491-5.241,2.285-7.865l.005-.015.646-2.073c.2-.646.427-1.381.679-2.114l.692-2.07c.158-.465.326-.923.489-1.366.086-.235.172-.471.256-.706.374-1.073.8-2.126,1.206-3.145q.2-.493.4-.987c.135-.353.281-.679.421-.995l.941-2.116.07-.159c.051-.116.109-.247.176-.385l.008-.017,1.516-3.035,1.642-2.923.326-.516,1.189-1.864c.742-1.156,1.531-2.258,2.293-3.324l.257-.358c.283-.392.574-.782.855-1.158.151-.2.3-.408.454-.612l.026-.033,1.348-1.747a86.376,86.376,0,0,1,5.893-6.753,60.682,60.682,0,0,1,6.793-6.063l.028-.021c.162-.119.322-.239.491-.365.437-.327.888-.666,1.385-.987l.24-.163c.542-.367,1.1-.746,1.712-1.1l.978-.589c.239-.138.472-.26.7-.379.11-.058.22-.115.329-.175l.022-.012.328-.174c.222-.119.452-.241.7-.365l.032-.016c.462-.22.855-.391,1.239-.534a21.321,21.321,0,0,1,4.913-1.188c.345-.046.721-.088,1.183-.133l.021,0,.583-.051.271-.02.112-.008.046,0,.021,0,.061,0a1.728,1.728,0,0,0,.7-.2l.022-.013a1.523,1.523,0,0,0,.661-1.112l0-.022a1.806,1.806,0,0,0-.06-.734,1.427,1.427,0,0,0-.314-.54l-.067-.07a2.293,2.293,0,0,0-.212-.166l-.1-.061-.042-.025-.148-.07c-.068-.032-.116-.057-.189-.087l-.025-.011-.3-.132c-.571-.251-1.16-.509-1.749-.793-.54-.248-1.062-.51-1.566-.766l-.458-.23-.05-.025-1.516-.815-.47-.271a50.7,50.7,0,0,1-7.555-5.27l-.031-.027-1.3-1.145-1.26-1.19-1.217-1.23-1.171-1.27-.742-.857c-.244-.282-.5-.573-.746-.89a77.936,77.936,0,0,1-5.235-7.322c-1.48-2.343-2.93-4.862-4.432-7.7-2.267-4.277-4.321-8.686-6.308-12.949-.418-.9-.852-1.829-1.279-2.74l0-.006c-1.181-2.538-2.4-5.057-3.714-7.7-1.122-2.254-2.462-4.919-3.9-7.6a126.943,126.943,0,0,0-8.753-14.367l-.015-.022c-.3-.428-.616-.848-.951-1.291l-.271-.36-.311-.412c-.066-.086-.137-.185-.205-.281l-.25-.354-.032-.053a8.361,8.361,0,0,1-.782-1.57,7.861,7.861,0,0,1-.45-3.62l0-.029a8.249,8.249,0,0,1,1.188-3.372,8.181,8.181,0,0,1,1.077-1.382,6.931,6.931,0,0,1,.506-.481l.1-.088.06-.055.065-.05.112-.087a6.522,6.522,0,0,1,.568-.408,7.934,7.934,0,0,1,3.408-1.246l.03,0a8.279,8.279,0,0,1,.859-.045,8,8,0,0,1,2.732.478c.4.144.7.279.957.4.082.038.165.076.252.114l.022.01,1.033.469a62.338,62.338,0,0,1,7.916,4.508c2.229,1.483,4.577,3.219,7.177,5.307,3.3,2.661,6.516,5.458,9.623,8.16,1.18,1.027,2.4,2.089,3.6,3.123l.017.014c2.121,1.867,4.374,3.9,6.481,6.137l.769.794c.181.191.351.38.517.563l.245.27.007.008,1.514,1.673c.257.3.524.616.782.917.685.8,1.393,1.628,2.067,2.487.151.191.3.379.465.578.3.373.614.757.917,1.162l1.323,1.731c.3.393.587.789.866,1.173.147.2.293.405.442.606l0,.006.663.909.62.88c1.67,2.349,3.211,4.671,4.909,7.245l.007.011,4.709,7.247c1.427,2.2,2.975,4.541,4.733,7.167.9,1.341,1.661,2.422,2.386,3.4a37.53,37.53,0,0,0,2.525,3.042c.328.354.67.7,1.022,1.027.02-.045.041-.089.059-.133l.453-1c.15-.334.314-.692.5-1.052a124.674,124.674,0,0,1,8.8-15.295l.014-.021c1.5-2.167,3.3-4.708,5.26-7.117l.679-.844c.241-.3.481-.6.749-.9l1.417-1.639c.936-1.081,1.955-2.159,3.115-3.3l0,0a42.75,42.75,0,0,1,7.195-5.763,27.744,27.744,0,0,1,4.268-2.192,19.746,19.746,0,0,1,4.827-1.307,17.108,17.108,0,0,1,2.243-.149,16.063,16.063,0,0,1,2.918.264,16.283,16.283,0,0,1,4.829,1.721c.38.192.715.4,1.012.591l.117.075.145.091c.116.073.248.154.387.251l.042.029.941.689c.137.1.255.2.36.292l.128.108.017.013.445.375.05.041c.057.048.135.113.222.193l.035.033.228.221a14.993,14.993,0,0,1,2.9,4.362l.006.014c.544,1.156,1.013,2.316,1.467,3.439a41.721,41.721,0,0,0,1.931,4.312,8.77,8.77,0,0,0,1.978,2.6c.037.031.074.059.111.088l.559.194c.721.25,1.408.488,2.085.7l1.88.156-.075.409,4.325,1.35-.746,3.9-4.472-.337-.08.446-1.894-.6a10.08,10.08,0,0,1-2.535-.595,8.841,8.841,0,0,1-1.6-.811l-.087-.03c-1.482-.5-2.685-.884-3.787-1.2a28.825,28.825,0,0,0-7.376-1.247,13.357,13.357,0,0,0-1.686.092l-.05.006a8.741,8.741,0,0,0-1.537.324l-.013,0a6.524,6.524,0,0,0-1.262.549c-.076.051-.147.1-.212.138a3.134,3.134,0,0,0-.278.191l-.039.033c-.073.06-.139.112-.192.153l-.074.058-.353.339a7.671,7.671,0,0,0-.957,1.154c-.023.034-.055.089-.086.142s-.058.1-.089.15c-.042.075-.082.138-.114.19-.01.017-.02.033-.031.05-.051.114-.1.22-.149.315a3.5,3.5,0,0,0-.159.352l-.017.05-.019.049a8.493,8.493,0,0,0-.55,3.075v.013a15.7,15.7,0,0,0,.4,3.491,28.3,28.3,0,0,0,1.086,3.593,66.61,66.61,0,0,0,3.29,7.191l1.869,3.652,1.9,3.657a47.309,47.309,0,0,1,3.379,8l0,.007a34.8,34.8,0,0,1,.972,4.336l.01.072c.022.189.048.377.075.577.068.512.139,1.041.175,1.6.009.112.019.225.029.338.02.234.041.476.056.728v.021c.005.113.012.226.018.338.014.234.027.475.034.726.078,1.842.049,3.677.022,5.449-.014.942-.029,1.917-.027,2.86,0,.224,0,.441.006.651a9.235,9.235,0,0,0,5.05,1.5c.22.006.445.01.667.01a22.716,22.716,0,0,0,3.055-.21,26.95,26.95,0,0,0,3.729-.835,41.6,41.6,0,0,0,7.354-3.1c2.619-1.374,5.111-2.915,7.2-4.243,1.243-.788,2.508-1.612,3.732-2.408,3.567-2.32,7.255-4.719,11.181-6.8.521-.282,1.046-.541,1.554-.793l.462-.229.051-.024,1.241-.576c.121-.058.235-.1.328-.139l.068-.026.037-.014.1-.04a6.017,6.017,0,0,1,.712-.242,8.044,8.044,0,0,1,2.274-.329,7.689,7.689,0,0,1,1.346.118,7.671,7.671,0,0,1,3.4,1.541,8.321,8.321,0,0,1,2.25,2.723,8.383,8.383,0,0,1,.958,3.349,8.087,8.087,0,0,1-.067,1.8l-.014.089a7.7,7.7,0,0,1-.527,1.784,7.773,7.773,0,0,1-2.239,2.949l-.027.021c-.174.137-.345.259-.495.367l-.169.121-.057.036c-.184.115-.36.216-.531.315l-.176.1-1,.516c-.7.352-1.346.674-1.984.984-1.346.653-2.7,1.284-3.955,1.869l-1.162.539c-2.167,1.005-4.407,2.045-6.54,3.121a48.134,48.134,0,0,0-6.92,4.1c-.414.315-.949.73-1.415,1.162l-.024.021a11.6,11.6,0,0,0-1.157,1.2c-.039.049-.079.1-.119.146s-.09.109-.121.149l-.249.347c-.169.249-.338.511-.49.758a14.378,14.378,0,0,0-.83,1.536,4.259,4.259,0,0,0-.5,2.291l0,.023a3.136,3.136,0,0,0,.35.984,8.481,8.481,0,0,0,.876,1.268c.683.843,1.5,1.687,2.371,2.58l.351.361.527.541c1.358.177,2.732.315,4.092.414,1.618.115,3.114.171,4.569.171,1.139,0,2.255-.036,3.319-.107l.98-.068,1.452-.148,1.447-.2a30.789,30.789,0,0,0,3.663-.829l.242-.081c.529-.177,1.029-.342,1.5-.54l.033-.013.917-.363.933-.408c.392-.164.787-.354,1.206-.557l.545-.262c.472-.233.938-.48,1.431-.741l.3-.16a52.088,52.088,0,0,0,6.557-4.308,58.364,58.364,0,0,0,5.9-5.26l.022-.022c.3-.3.6-.618.916-.956q.22-.236.441-.47c.282-.3.556-.613.847-.94q.234-.265.468-.527t.453-.535c.284-.335.553-.652.815-.975.144-.183.29-.363.43-.536.283-.349.548-.678.8-1.012l.019-.025a80.044,80.044,0,0,0,8.392-13.594,96.156,96.156,0,0,0,9.066-30.723,86.758,86.758,0,0,0,.471-16.028,73.468,73.468,0,0,0-.967-7.934,62.685,62.685,0,0,0-1.918-7.729l3.807-1.228a66.927,66.927,0,0,1,2.1,8.213v.007a77.3,77.3,0,0,1,1.079,8.376,90.906,90.906,0,0,1-.379,16.812,102.03,102.03,0,0,1-3.286,16.467,98.152,98.152,0,0,1-5.982,15.708,84.517,84.517,0,0,1-8.776,14.395c-.293.4-.594.775-.886,1.139-.138.173-.276.346-.412.519l-.014.017c-.294.367-.594.724-.884,1.069q-.228.271-.455.545l-.046.053c-.158.178-.316.358-.473.537-.3.338-.6.688-.921,1.034l-.013.013q-.215.23-.427.461c-.327.353-.663.718-1.023,1.078a62.968,62.968,0,0,1-6.331,5.7,56.7,56.7,0,0,1-7.141,4.747l-.031.016-.3.161c-.511.275-1.04.56-1.582.831l-.031.014c-.176.085-.353.171-.529.258-.45.22-.915.448-1.408.659l-1,.441-.943.38c-.623.263-1.246.473-1.848.677l-.29.1a35.2,35.2,0,0,1-4.293,1l-.052.008-1.615.235-1.615.174-1.033.077c-1.278.093-2.614.14-3.976.14-1.147,0-2.314-.031-3.541-.1a111.027,111.027,0,0,1,8.575,11.5,110.656,110.656,0,0,1,8.419,15.663l0,.005c1.265,2.886,2.318,5.613,3.221,8.338a69.1,69.1,0,0,1,2.32,8.756l0,.012c.228,1.236.51,2.867.674,4.538l.119,1.186.066,1.1a23,23,0,0,1,.05,2.479,19.2,19.2,0,0,1-.848,5.117,14.892,14.892,0,0,1-2.563,4.865l-.031.04a13.361,13.361,0,0,1-2.018,1.992l-.268.218-.321.226-.149.1c-.122.085-.248.174-.386.264l-.049.032-.05.029c-.085.049-.168.1-.253.149a10.284,10.284,0,0,1-.924.508,17.018,17.018,0,0,1-5.037,1.567l-.018,0a25.917,25.917,0,0,1-3.956.289,39.278,39.278,0,0,1-5.612-.444l-.01,0a89.446,89.446,0,0,1-8.769-1.836,77.524,77.524,0,0,1-8.595-2.706,81.333,81.333,0,0,1-12.627-6.091l.455.869c.163.308.347.656.515,1.032.152.33.31.67.465,1,.431.92.878,1.87,1.266,2.864.086.212.175.425.263.637.174.418.353.85.526,1.287l.019.051,1.077,2.964c.077.229.149.455.219.674.035.112.07.224.106.336l0,.007.637,2a98.27,98.27,0,0,1,3.356,16.5c.076.534.122,1.055.168,1.56.017.184.034.37.052.555v.012l.2,2.119.126,2.06c.007.133.015.263.023.393.035.565.072,1.149.082,1.749q.012.449.026.9c.033,1.07.068,2.176.051,3.286l-.005,2.109-.066,2.05c-.02,1.048-.086,2.089-.151,3.1-.023.354-.047.722-.068,1.08-.026.529-.075,1.041-.122,1.537-.018.2-.037.39-.054.585l-.2,2.116c-.294,2.477-.67,5.4-1.224,8.3-.044.231-.086.465-.13.7-.08.442-.164.9-.258,1.355l0,.022-.671,3.083-.756,3.022c-.117.453-.245.9-.369,1.327-.067.231-.132.462-.2.693l-.007.025c-.057.2-.113.4-.173.606-.13.465-.266.947-.431,1.437-.079.247-.157.492-.236.739-.338,1.056-.686,2.148-1.09,3.228-.8,2.311-1.817,4.788-3.19,7.794l-.026.056c-.157.315-.314.641-.467.955-.448.922-.911,1.876-1.437,2.812l-.515.955c-.161.3-.327.609-.525.929l-1.364,2.282-.854,1.3-.193.293c-.321.49-.653,1-1.024,1.5-.136.187-.268.374-.409.572-.264.37-.535.753-.825,1.133l-1.277,1.67c-1.732,2.189-3.6,4.33-5.552,6.363a83.368,83.368,0,0,1-6.152,5.792c-2.213,1.885-4.455,3.624-6.665,5.172a90.309,90.309,0,0,1-14.643,8.336c-2.756,1.238-5.32,2.255-7.838,3.108-2.641.9-5.363,1.684-8.086,2.336a82.049,82.049,0,0,1-8.3,1.541h-.007a80.147,80.147,0,0,1-8.407.708c-.854.028-1.71.042-2.543.042A62.19,62.19,0,0,1-1755.8-1958.731Zm58-174.391a30.7,30.7,0,0,1-.386,4.775l0,.009a18.412,18.412,0,0,1-1.5,4.926,14.058,14.058,0,0,1-1.4,2.356,13.888,13.888,0,0,1-1.17,1.377,67.139,67.139,0,0,1,7.188,10.739l.007.014a64.733,64.733,0,0,1,5.864,16.068c.687,2.885,1.127,5.8,1.486,8.316l.006.051c.049.418.1.846.153,1.26.117.941.238,1.914.322,2.893l.2,2.079.241,3.109c.005.082.014.153.024.242.005.044.01.087.015.132l0,.031c0,.013.006.025.009.039.01.047.022.1.034.167a1.736,1.736,0,0,0,.33.67l.013.016a1.842,1.842,0,0,0,.617.486,2.326,2.326,0,0,0,.865.229c.041,0,.083,0,.124,0a1.778,1.778,0,0,0,1.31-.51l.018-.02a2.024,2.024,0,0,0,.437-.74l.3-.9.272-.912a41.665,41.665,0,0,0,1.338-7.535v-.006a57.562,57.562,0,0,0,.157-7.807l-.056-1.07c0-.049,0-.1,0-.146,0-.158-.009-.336,0-.531l0-.058,0-.058c0-.044.006-.089.008-.133a5.443,5.443,0,0,1,.059-.6,7.352,7.352,0,0,1,1.13-3.019,7.617,7.617,0,0,1,4.5-3.2,74.06,74.06,0,0,1-6.377-6.082,64.682,64.682,0,0,1-10.412-14.825,57.025,57.025,0,0,1-3.457-8.455c-.837-2.579-1.425-5.186-1.994-7.707-.069-.307-.138-.614-.208-.919-.148-.645-.3-1.281-.458-1.891A66.479,66.479,0,0,1-1697.8-2133.123Zm-95.925-145.3a1.571,1.571,0,0,0-1.057.737l-.011.018a1.653,1.653,0,0,0-.232.644,1.32,1.32,0,0,0,.068.582l.031.083a2.4,2.4,0,0,0,.139.26l.067.094c.018.026.036.051.053.077l.038.052.016.021.33.438c.087.117.175.232.262.347.355.472.724.958,1.077,1.465a133.638,133.638,0,0,1,9.2,15.1c1.47,2.756,2.836,5.476,3.978,7.772,1.323,2.658,2.6,5.3,3.783,7.856.481,1.026.965,2.067,1.434,3.075,1.9,4.093,3.872,8.326,5.99,12.336,1.421,2.693,2.785,5.072,4.17,7.274a71.432,71.432,0,0,0,4.787,6.718l.017.022c.176.226.374.455.583.7l.7.809,1.023,1.111,1.058,1.074,1.094,1.035,1.138,1a44.249,44.249,0,0,0,6.566,4.593l.013.007.43.249,1.337.721.464.234c.462.235.9.456,1.338.658l.041.019c.5.241,1.005.465,1.543.7l.308.136c.187.08.423.195.632.3a6.452,6.452,0,0,1,.57.315l.143.085.068.039.064.044a8.235,8.235,0,0,1,1.354,1.126,7.891,7.891,0,0,1,1.843,3.095l.01.031a8.307,8.307,0,0,1,.293,3.5,8,8,0,0,1-.413,1.714,7.9,7.9,0,0,1-.776,1.595,7.717,7.717,0,0,1-1.141,1.413l-.039.038a7.891,7.891,0,0,1-1.471,1.108,8.126,8.126,0,0,1-3.41,1.042l-1.043.084c-.383.037-.675.069-.945.1a14.966,14.966,0,0,0-3.453.812l-.023.009c-.205.077-.428.172-.718.309-.165.083-.338.176-.521.273l-.337.178c-.113.06-.226.119-.339.178-.178.094-.347.182-.5.271l-.914.548c-.445.255-.891.556-1.362.874l-.274.185-.036.024c-.356.228-.715.5-1.094.779-.16.121-.326.244-.494.367a54.184,54.184,0,0,0-6.074,5.412,79.659,79.659,0,0,0-5.461,6.239l-1.286,1.66q-.219.3-.439.59c-.266.356-.543.725-.8,1.085l-.24.336c-.724,1.008-1.473,2.051-2.134,3.078l-1.391,2.178-1.512,2.68-.216.431-1.18,2.358c-.032.067-.068.15-.107.237-.028.063-.056.127-.085.189l-.909,2.037c-.122.273-.238.529-.332.776l-.009.022c-.136.342-.274.682-.411,1.023-.4.985-.774,1.917-1.108,2.874l-.007.019c-.086.242-.176.483-.264.724-.158.43-.308.836-.449,1.247l-.687,2.044c-.229.662-.447,1.365-.64,1.984l-.64,2.039c-.778,2.555-1.529,5.181-2.256,7.722-.831,2.9-1.69,5.9-2.6,8.86l0,.008-.651,2.072c-.146.471-.3.933-.455,1.381-.08.236-.16.473-.238.708-.385,1.188-.817,2.365-1.235,3.5q-.123.333-.245.667l-.007.019c-1,2.649-2.029,5.387-3.1,8.109a137.3,137.3,0,0,1-7.363,16.068c-.815,1.463-1.578,2.734-2.335,3.89-.361.554-.706,1.068-1.043,1.551.4-.023.786-.042,1.153-.06l.832-.04c1.1-.051,2.134-.1,3.167-.179a30.778,30.778,0,0,0,3.66-.5l2.375-.548,2.371-.666c.167-.049.347-.109.536-.172l.355-.116c.227-.076.454-.149.681-.224.407-.132.791-.258,1.175-.391l.795-.3c1-.369,1.936-.718,2.86-1.12l.057-.024c.909-.362,1.8-.768,2.737-1.2q.433-.2.867-.4c.371-.176.736-.356,1.122-.548q.328-.163.656-.324l.88-.436.892-.473c2.527-1.306,4.915-2.739,6.917-3.968,2.014-1.248,4.13-2.661,6.657-4.444,2.145-1.54,4.292-3.172,6.385-4.854a109.748,109.748,0,0,0,11.558-10.994c1.728-1.879,3.468-3.864,5.317-6.067.92-1.093,1.816-2.189,2.573-3.119a12.657,12.657,0,0,0,.944-1.357c.246-.408.488-.834.745-1.287.078-.139.157-.278.238-.418.432-.764.811-1.382,1.193-1.945a13.185,13.185,0,0,1,1.635-2.007,9.565,9.565,0,0,1,.866-.781,122.625,122.625,0,0,1-6.97-13.832l0,0c-.634-1.472-1.187-2.8-1.693-4.049l-.434-1.081c-.13-.325-.266-.661-.4-1.031l0-.006a9,9,0,0,1-.612-3.108,6.394,6.394,0,0,1,.08-.995l.009-.054c.03-.164.068-.312.1-.43l.01-.041a3.659,3.659,0,0,1,.237-.7,4.666,4.666,0,0,1,.751-1.217l.053-.064.058-.058c.134-.137.277-.273.424-.4l.085-.075.092-.064c.142-.1.293-.2.474-.308l.049-.03.051-.027a5.572,5.572,0,0,1,2.221-.606l.058,0c.132-.006.267-.01.4-.01a8.937,8.937,0,0,1,1.234.087,16.436,16.436,0,0,1,2.548.585l.007,0c.8.242,1.558.51,2.2.741.379.136.76.277,1.128.414.96.356,1.868.693,2.732.938.061.017.176.049.3.077a7.687,7.687,0,0,0-.338-.853,29.171,29.171,0,0,0-1.414-2.556c-.185-.312-.378-.635-.569-.963l-.005-.01a17.015,17.015,0,0,1-2.048-4.77l-.007-.033a8.251,8.251,0,0,1-.05-3.316l.07-.345.179-.8c.072-.3.133-.627.191-.936l0-.015a68.788,68.788,0,0,0,.94-8.22c.048-.694.093-1.407.135-2.1.136-2.163.276-4.4.531-6.635.041-.4.093-.794.139-1.134.008-.065.017-.132.026-.2.04-.312.082-.634.146-.977l.475-2.747c.028-.139.058-.268.086-.392l.041-.177,0-.012.631-2.755.149-.539c.086-.306.171-.612.256-.918.305-1.1.622-2.242,1.013-3.37.076-.231.155-.472.229-.7.147-.454.3-.924.468-1.4l.008-.023.608-1.635a26.707,26.707,0,0,1-3.2-2.937,44.521,44.521,0,0,1-2.982-3.592l-.006-.008c-.789-1.065-1.607-2.229-2.571-3.666-1.766-2.641-3.33-5.012-4.784-7.251l-4.694-7.233c-1.659-2.518-3.163-4.788-4.772-7.052l-.005-.008-.606-.861-.619-.85q-.227-.308-.452-.618c-.271-.373-.526-.725-.791-1.075l-1.309-1.714c-.25-.336-.518-.666-.8-1.016-.161-.2-.327-.4-.491-.61l-.005-.008c-.6-.768-1.231-1.5-1.9-2.281-.253-.3-.514-.6-.771-.905l-1.406-1.554-.256-.282c-.147-.163-.285-.317-.424-.463l-.752-.777c-1.922-2.044-4.037-3.957-6.037-5.72-1.21-1.042-2.43-2.1-3.611-3.134-3.069-2.673-6.242-5.438-9.427-8a68.84,68.84,0,0,0-13.758-8.993l-.948-.431-.255-.116c-.139-.063-.371-.169-.449-.2l-.068-.024a1.361,1.361,0,0,0-.486-.083Q-1793.645-2278.432-1793.725-2278.426Zm100.912,89.82a9.88,9.88,0,0,1,2.983.949,6.752,6.752,0,0,1,2.847,2.747,7.058,7.058,0,0,1,.678,1.829l.01.046a8.254,8.254,0,0,1,.171,1.714,11.743,11.743,0,0,1-.391,2.893v.006a19.488,19.488,0,0,1-.815,2.441,35.022,35.022,0,0,1-2.111,4.247l0,.006a83.437,83.437,0,0,1-4.982,7.463c-.608.829-1.232,1.657-1.834,2.456l-.767,1.019-.617.836-.266.372-.208.321a6.461,6.461,0,0,0-.573,1.3,13.542,13.542,0,0,0-.568,3.454v.008a34.005,34.005,0,0,0,.045,3.96c0,.027,0,.054,0,.082a8.316,8.316,0,0,1,2.662,1.06,8.229,8.229,0,0,1,2.49,2.448,12.727,12.727,0,0,1,1.287,2.571l.008.023a37.781,37.781,0,0,1,1.273,4.543l0,.009q.1.44.2.877c.573,2.522,1.114,4.9,1.869,7.214l.005.015a50.6,50.6,0,0,0,3.081,7.5,58.206,58.206,0,0,0,9.4,13.328,72.7,72.7,0,0,0,27.308,18.118,71.391,71.391,0,0,0,7.872,2.466c2.434.606,5.3,1.283,8.126,1.695a36.62,36.62,0,0,0,3.924.362c.247.006.49.01.723.01a19.06,19.06,0,0,0,2.97-.21,10.551,10.551,0,0,0,3.141-.958l.087-.042a4.128,4.128,0,0,0,.365-.2c.069-.04.144-.086.225-.132l.441-.306.184-.149a6.745,6.745,0,0,0,1-1,8.491,8.491,0,0,0,1.4-2.712l0-.005a12.625,12.625,0,0,0,.544-3.373,16.627,16.627,0,0,0-.04-1.829l0-.023-.06-1-.1-1.011c-.139-1.414-.38-2.809-.6-3.988a62.651,62.651,0,0,0-2.108-7.919c-.827-2.489-1.838-5.1-3.005-7.764a104.313,104.313,0,0,0-7.921-14.723,103.784,103.784,0,0,0-10.213-13.239c-.889-.98-1.827-1.972-2.871-3.035a77.44,77.44,0,0,1-7.706-1.847,57.979,57.979,0,0,1-8.036-3.01l-.529-.246-1.481-.751c-.179-.1-.361-.2-.554-.307-.429-.235-.872-.479-1.319-.764a27.288,27.288,0,0,1-3.639-2.6,21.784,21.784,0,0,1-3.2-3.331c-.193-.244-.365-.49-.516-.707-.053-.076-.106-.153-.16-.229l-.037-.052-.034-.055c-.053-.085-.108-.171-.163-.256-.136-.211-.29-.449-.436-.717a16.591,16.591,0,0,1-1.034-2.136l0-.01a18.167,18.167,0,0,1-.731-2.266l-.006-.025c-.1-.406-.19-.827-.271-1.274l-.389-.33c-.1-.086-.176-.167-.233-.227l-.048-.049a15.078,15.078,0,0,1-3.121-4.531l0-.006a24.536,24.536,0,0,1-1.544-4.733l0-.006a70.938,70.938,0,0,1-1.165-7.547q-.078-.668-.157-1.332c-.185-1.541-.355-2.823-.582-4.077l-.005-.028c-.031-.184-.07-.375-.113-.58-.025-.122-.05-.245-.075-.368-.039-.181-.083-.367-.131-.562-.027-.115-.055-.23-.081-.346l-.255-.923c-.036-.116-.071-.232-.106-.349-.058-.193-.113-.376-.171-.54l-.006-.018a16.322,16.322,0,0,0-1.453-3.277l-.013-.023a7.921,7.921,0,0,0-1.974-2.295,6.188,6.188,0,0,0-2.557-1.131h-.005a10.847,10.847,0,0,0-2.167-.2c-.384,0-.8.015-1.225.046a51.741,51.741,0,0,0-7.141,1.234l-.886.193a65.628,65.628,0,0,1-8.962,1.5c-.805.062-1.6.094-2.363.094-.86,0-1.71-.041-2.524-.12h-.011a22.3,22.3,0,0,1-2.5-.389l-.014,0c-.305-.069-.591-.149-.869-.227l-.344-.094-.068-.02-.121-.032a4.746,4.746,0,0,1-.593-.189l-.483-.184-.262.713c-.141.4-.271.8-.408,1.234-.077.243-.158.494-.24.745l-.008.024c-.339.986-.614,1.989-.9,3.053q-.127.465-.256.927l-.125.462-.571,2.542-.046.205c-.021.089-.04.175-.056.252l-.443,2.623c-.042.221-.073.468-.105.729-.009.069-.018.139-.027.209-.044.341-.086.672-.117,1l0,.025c-.231,2.088-.356,4.173-.49,6.378-.041.688-.084,1.4-.13,2.1a74.3,74.3,0,0,1-1.007,8.923c-.063.347-.139.753-.235,1.164l-.172.773-.041.212a2.489,2.489,0,0,0,.043.956,11.96,11.96,0,0,0,1.4,3.07c.177.3.358.607.55.926.367.611.742,1.235,1.1,1.9q.226-.854.486-1.713a48.743,48.743,0,0,1,3.49-8.536l.005-.009a37.615,37.615,0,0,1,5.366-7.729l.009-.01a24.879,24.879,0,0,1,7.881-5.856,19.632,19.632,0,0,1,4.875-1.52,28.367,28.367,0,0,1,4.806-.472h.148A15.2,15.2,0,0,1-1692.814-2188.606Zm-28.155,60.957.011.013a26.681,26.681,0,0,0,2.618,2.867,15.493,15.493,0,0,0,2.867,2.166,7.858,7.858,0,0,0,2.919,1.031l.009,0a5.578,5.578,0,0,0,.831.041l-.366-.4c-.794-.86-1.741-1.873-2.74-2.86a32.774,32.774,0,0,0-2.8-2.489,15.63,15.63,0,0,0-2.9-1.82l-.031-.014a9.848,9.848,0,0,0-1.437-.536c-.228-.058-.434-.1-.624-.141Q-1721.8-2128.68-1720.968-2127.649Zm-2.04-8.148a13.673,13.673,0,0,1,2.563.447l.069.019a15.721,15.721,0,0,1,2.35.886,21.215,21.215,0,0,1,4.01,2.507l.014.012a38.63,38.63,0,0,1,3.317,2.953c1.083,1.075,2.087,2.155,2.928,3.07l1.468,1.6q.157-.186.3-.381a8.084,8.084,0,0,0,.794-1.354,12.4,12.4,0,0,0,.977-3.309,24.616,24.616,0,0,0,.293-3.827,71.375,71.375,0,0,0-.563-8.251c-.072-.656-.149-1.326-.224-1.975-.018-.15-.035-.3-.053-.454-.327.076-.672.164-1.04.263l-.744.21-.068.019-.017,0-.027.011-.1.029a2.228,2.228,0,0,0-.352.171,10.238,10.238,0,0,0-1.3.945l-.355.291c-.439.362-.938.772-1.494,1.171a11.422,11.422,0,0,1-1.249.788,8.188,8.188,0,0,1-1.581.665,6.835,6.835,0,0,1-2.057.308,7.033,7.033,0,0,1-1.8-.23,9.182,9.182,0,0,1-2.923-1.39c-.236-.156-.437-.316-.6-.445l-.287-.227c-.094-.08-.183-.16-.261-.231l-.09-.084a7.587,7.587,0,0,1-1.175-1.427,10.089,10.089,0,0,1-1.221-2.885l0-.01a19.747,19.747,0,0,1-.533-5.1v-.01c.005-.605.029-1.209.062-1.8a6.714,6.714,0,0,1-1.526.306l-.053,0-.4.026-.279.007-.14,0c-.12,0-.233-.005-.325-.011h-.023a4.85,4.85,0,0,1-.524-.048,10.438,10.438,0,0,1-1.433-.3l-.026-.007c-1.141-.322-2.179-.7-3.182-1.074-.378-.139-.734-.271-1.1-.4l-.007,0c-.527-.189-1.219-.433-1.9-.635-.311-.093-.686-.2-1.061-.28l.035.1c.1.275.22.57.347.883l.415,1.025c.495,1.22,1.034,2.5,1.647,3.911a115.06,115.06,0,0,0,7.016,13.733,13.014,13.014,0,0,1,2.557-.258C-1723.622-2135.832-1723.313-2135.82-1723.009-2135.8Zm27.56-46.733a22.679,22.679,0,0,0-3.763.384l-.014,0a13.41,13.41,0,0,0-3.337,1.05,18.618,18.618,0,0,0-5.864,4.407,31.233,31.233,0,0,0-4.432,6.426,42.4,42.4,0,0,0-3.02,7.423,40.363,40.363,0,0,0-1.566,7.842v.01c-.12,1.219-.243,2.65-.254,4.025a13.459,13.459,0,0,0,.336,3.455,3.861,3.861,0,0,0,.435,1.078,1.31,1.31,0,0,0,.183.225l.059.053.162.127c.072.056.16.126.2.151l.07.047a3.136,3.136,0,0,0,.888.458,1.193,1.193,0,0,0,.177.031l.068,0a.552.552,0,0,0,.163-.027l.048-.014a1.914,1.914,0,0,0,.358-.157l.031-.017a5.223,5.223,0,0,0,.556-.357l.006,0c.362-.258.754-.582,1.17-.925l.356-.293.006-.005a16.14,16.14,0,0,1,2.186-1.555l.022-.013a8.385,8.385,0,0,1,1.548-.687c.13-.045.229-.073.3-.094l.049-.014.283-.08.56-.158c.6-.161,1.314-.344,2.1-.5a40.064,40.064,0,0,1-.055-4.584,19.749,19.749,0,0,1,.846-5.027l0-.006a12.6,12.6,0,0,1,1.165-2.61l.035-.057.383-.591.344-.483.657-.895q.387-.52.774-1.035c.591-.788,1.2-1.6,1.787-2.4a77.329,77.329,0,0,0,4.589-6.9,29.152,29.152,0,0,0,1.728-3.479,8.627,8.627,0,0,0,.748-3.007v-.039a1.944,1.944,0,0,0-.039-.382.939.939,0,0,0-.055-.16.568.568,0,0,0-.242-.2,3.713,3.713,0,0,0-1.106-.323l-.013,0a9.042,9.042,0,0,0-1.483-.1Zm26.423,13.329.044.08c.065.122.158.27.258.426.052.082.106.167.161.255l.144.208c.118.17.229.332.335.466l.015.02a16.815,16.815,0,0,0,2.466,2.589l.007.006a22.369,22.369,0,0,0,3,2.164l.059.037c.325.211.685.411,1.066.622.181.1.366.2.554.312l1.283.655.429.2a52.885,52.885,0,0,0,7.346,2.789q.693.208,1.392.4a9.516,9.516,0,0,1-.842-2.658,9.26,9.26,0,0,1,.092-3.321,12.787,12.787,0,0,1,.912-2.749,21.235,21.235,0,0,1,1.216-2.264c.214-.346.426-.674.666-1.028l.031-.045.372-.518c.108-.145.213-.273.306-.386.037-.044.074-.089.11-.135l.022-.028a18.09,18.09,0,0,1,1.813-1.885c.673-.621,1.369-1.164,1.9-1.567l.017-.013a54.64,54.64,0,0,1,7.892-4.708c2.242-1.132,4.517-2.19,6.718-3.211l1.179-.548c1.232-.574,2.551-1.191,3.853-1.824.6-.289,1.21-.594,1.876-.931l.88-.456.226-.132.193-.142a1.173,1.173,0,0,0,.317-.422l.022-.05a1.507,1.507,0,0,0,.05-.2,1.979,1.979,0,0,0,.016-.263l-.006-.074a1.827,1.827,0,0,0-.212-.729l-.007-.014a1.781,1.781,0,0,0-.457-.578l-.007-.005a1.083,1.083,0,0,0-.461-.237l-.029,0a1.329,1.329,0,0,0-.609.051l-.025.007a9.941,9.941,0,0,0-.961.418c-.167.078-.341.16-.514.239l-.455.226c-.465.23-.9.448-1.335.681l-.017.009c-3.625,1.918-7.054,4.15-10.683,6.512-1.23.8-2.5,1.629-3.771,2.436-2.209,1.4-4.847,3.036-7.675,4.521a48.186,48.186,0,0,1-8.537,3.584l-.012,0a33.647,33.647,0,0,1-4.678,1.044l-.016,0a29.438,29.438,0,0,1-3.992.276c-.3,0-.594,0-.887-.013h-.01a18.992,18.992,0,0,1-3.2-.382C-1669.129-2169.382-1669.078-2169.29-1669.026-2169.2Zm-15.17-79.276a17.856,17.856,0,0,0-6.888,2.734,37.147,37.147,0,0,0-6.229,5.042c-1.05,1.04-1.966,2.016-2.8,2.985l-1.41,1.644c-.2.229-.4.481-.609.742l-.006.007-.677.848c-1.829,2.259-3.535,4.689-4.964,6.77a118.9,118.9,0,0,0-8.339,14.627l-.019.038c-.147.292-.284.595-.41.879l0,.011-.437.971c-.106.239-.214.478-.318.708-.035.075-.069.15-.1.225l.343.132.048.012c.058.014.136.034.221.06.127.033.247.066.363.1.171.048.332.093.48.127a15.583,15.583,0,0,0,1.749.266c.594.058,1.22.087,1.86.087.6,0,1.227-.026,1.868-.075a58.673,58.673,0,0,0,8.051-1.373l.006,0,1.061-.232a56.1,56.1,0,0,1,7.9-1.335h.012c.6-.042,1.165-.063,1.713-.063a17.3,17.3,0,0,1,3.487.332,13.14,13.14,0,0,1,2.549.786c-.644-1.358-1.259-2.759-1.8-4.192a33.306,33.306,0,0,1-1.307-4.266l0-.008a20.939,20.939,0,0,1-.548-4.651,13.7,13.7,0,0,1,.869-4.933,7.915,7.915,0,0,1,.392-.918q.055-.112.108-.227a4.644,4.644,0,0,1,.284-.531c.022-.037.046-.076.058-.1l.04-.068.08-.136c.07-.12.149-.257.248-.4l.021-.031a12.883,12.883,0,0,1,1.648-1.988l.388-.377a5.393,5.393,0,0,1,.427-.366l.1-.077a7.4,7.4,0,0,1,.861-.625l.222-.147.068-.047.072-.041a11.915,11.915,0,0,1,2.421-1.066,13.892,13.892,0,0,1,2.45-.526,18.54,18.54,0,0,1,2.374-.145h.038a29.681,29.681,0,0,1,5.818.683c-.408-.905-.777-1.808-1.138-2.695-.444-1.085-.862-2.11-1.331-3.095a10.156,10.156,0,0,0-1.8-2.8l-.138-.134-.031-.026-.088-.073-.388-.322c-.053-.043-.106-.088-.158-.132s-.12-.1-.165-.135l-.793-.575c-.048-.031-.111-.07-.176-.111l-.178-.112-.112-.069a6.467,6.467,0,0,0-.579-.34l-.078-.041a10.821,10.821,0,0,0-3.231-1.147,10.54,10.54,0,0,0-1.877-.167A11.549,11.549,0,0,0-1684.2-2248.476Z" transform="translate(3211.056 3158.833)"/>
    </g>
  </g>
</svg>
